<?xml version="1.0" encoding="utf-8"?>
<!-- Generator: Adobe Illustrator 16.0.0, SVG Export Plug-In . SVG Version: 6.00 Build 0)  -->
<!DOCTYPE svg PUBLIC "-//W3C//DTD SVG 1.1//EN" "http://www.w3.org/Graphics/SVG/1.1/DTD/svg11.dtd">
<svg version="1.1" xmlns="http://www.w3.org/2000/svg" xmlns:xlink="http://www.w3.org/1999/xlink" x="0px" y="0px" width="36.85px"
	 height="36.85px" viewBox="0 0 36.85 36.85" enable-background="new 0 0 36.85 36.85" xml:space="preserve">
<g id="Layer_5" display="none">
</g>
<g id="Layer_1" display="none">
	<rect x="-236.695" y="-52.44" display="inline" fill="#5A81C1" width="510.24" height="141.73"/>
	<linearGradient id="SVGID_1_" gradientUnits="userSpaceOnUse" x1="-307.5591" y1="18.4253" x2="344.4097" y2="18.4253">
		<stop  offset="0" style="stop-color:#5B87C5"/>
		<stop  offset="1" style="stop-color:#5B87C5"/>
	</linearGradient>
	<rect x="-307.559" y="-52.44" display="inline" fill="url(#SVGID_1_)" width="651.969" height="141.73"/>
	<g>
		
			<path id="white_hat" display="inline" fill-rule="evenodd" clip-rule="evenodd" fill="#FFFFFF" stroke="#FFFFFF" stroke-miterlimit="10" d="
			M-182.93-0.663c-0.124,0.016-0.244-0.042-0.369,0.009c-0.077,0.032-0.167,0.037-0.251,0.054c0.078-0.063,0.124-0.119,0.032-0.203
			c-0.018-0.017-0.02-0.051-0.025-0.077c-0.031-0.134-0.012-0.271-0.001-0.405c0.03-0.364,0.047-0.729,0.039-1.094
			c-0.002-0.073,0.003-0.157-0.051-0.215c-0.15-0.167-0.304-0.331-0.456-0.495c-0.045-0.051-0.084-0.103-0.088-0.179
			c-0.013-0.241-0.016-0.481-0.034-0.722c-0.026-0.361-0.05-0.725-0.057-1.089c-0.004-0.241-0.054-0.475-0.088-0.71
			c-0.034-0.243-0.094-0.481-0.139-0.723c-0.072-0.387-0.14-0.776-0.268-1.148c-0.095-0.278-0.168-0.568-0.284-0.842
			c-0.083-0.195-0.159-0.396-0.268-0.575c-0.206-0.348-0.385-0.715-0.655-1.024c-0.108-0.123-0.188-0.27-0.299-0.387
			c-0.086-0.088-0.19-0.16-0.267-0.261c-0.29-0.387-0.653-0.702-0.983-1.051c-0.104-0.108-0.224-0.203-0.34-0.301
			c-0.292-0.25-0.586-0.495-0.895-0.729c-0.001,0-0.003-0.001-0.005-0.003l0-0.001c0.002,0.001,0.004,0.003,0.004,0.004
			c0.044,0.017,0.088,0.031,0.133,0.049c0.172,0.07,0.329,0.17,0.492,0.259c0.01,0.009,0.021,0.021,0.034,0.009
			c0.015-0.014-0.002-0.024-0.007-0.034c-0.448-0.494-0.986-0.871-1.548-1.221c-0.839-0.52-1.753-0.822-2.714-0.993
			c-0.357-0.063-0.722-0.044-1.082,0.015c-0.177,0.03-0.354,0.051-0.53-0.003c-0.322-0.103-0.649-0.179-0.986-0.19
			c-0.641-0.021-1.259,0.095-1.873,0.281c-0.314,0.095-0.625,0.195-0.931,0.309c-0.632,0.234-1.193,0.598-1.738,0.983
			c-0.386,0.27-0.735,0.581-1.029,0.951c-0.025,0.033-0.051,0.104-0.121,0.043c-0.018-0.013-0.041,0.012-0.058,0.027
			c-0.314,0.277-0.635,0.546-0.941,0.83c-0.299,0.277-0.583,0.568-0.842,0.885c-0.132,0.161-0.268,0.321-0.392,0.49
			c-0.234,0.317-0.441,0.652-0.631,0.998c-0.064,0.114-0.139,0.226-0.153,0.362c-0.075,0.019-0.071,0.077-0.068,0.135
			c-0.023,0.049-0.048,0.1-0.072,0.147c-0.044-0.006-0.049,0.031-0.06,0.056c-0.078,0.176-0.154,0.353-0.219,0.536
			c-0.109,0.304-0.22,0.608-0.304,0.921c-0.049,0.184-0.109,0.367-0.162,0.553c-0.083,0.288-0.138,0.582-0.214,0.872
			c-0.081,0.313-0.154,0.629-0.206,0.95c-0.034,0.213-0.12,0.457-0.149,0.441c-0.038-0.021-0.055,0.029-0.078,0.049
			c-0.13,0.114-0.259,0.23-0.389,0.347c-0.056,0.051-0.114,0.102-0.114,0.187c-0.004,0.014-0.01,0.029-0.011,0.045
			c-0.055,0.43-0.046,0.866-0.118,1.295c-0.008,0.045-0.376,0.191-0.52,0.257c-0.79,0.354-1.5,0.838-2.185,1.363
			c-0.29,0.221-0.59,0.434-0.833,0.713c-0.061,0.07-0.109,0.146-0.108,0.245c0.496,0.202,1.026,0.214,1.544,0.304
			c0.498,0.083,0.997,0.158,1.493,0.252c0.411,0.076,0.824,0.145,1.234,0.226c0.451,0.089,0.901,0.184,1.352,0.277
			c0.903,0.187,1.804,0.382,2.708,0.562c0.604,0.119,1.207,0.226,1.815,0.32c0.384,0.061,0.771,0.026,1.157-0.024
			c0.649-0.084,1.225-0.375,1.825-0.603c0.398-0.15,0.794-0.306,1.204-0.425c0.267-0.077,0.53-0.173,0.796-0.259
			c0.587-0.182,1.184-0.336,1.784-0.468c0.374-0.081,0.751-0.147,1.128-0.212c0.57-0.099,1.145-0.145,1.721-0.184
			c0.286-0.019,0.571-0.009,0.856-0.019c0.419-0.014,0.838-0.025,1.256-0.045c0.455-0.025,0.911-0.05,1.363-0.092
			c0.476-0.045,0.951-0.086,1.428-0.148c0.421-0.057,0.84-0.119,1.255-0.213c0.021-0.006,0.045-0.001,0.068-0.003
			c0.002,0.003,0.005,0.008,0.008,0.012c-0.141,0.099-0.313,0.113-0.474,0.158c-0.079,0.023-0.162,0.025-0.232,0.068
			c0.349-0.047,0.687-0.13,1.011-0.276c0.078-0.033,0.125-0.098,0.184-0.15C-182.898-0.631-182.889-0.669-182.93-0.663z"/>
		<g id="slashes" display="inline">
			<path fill-rule="evenodd" clip-rule="evenodd" fill="#144691" d="M-206.647-2.878c0.838,0.642,1.921,1.31,3.474,1.679
				c2.352,0.559,4.967,0.743,5.926,0.8c0.957,0.058,1.5,0.108,1.5,0.108s-1.406,0.193-4.353-0.021
				c-1.335-0.098-3.439-0.443-4.373-0.792c-0.933-0.347-1.687-0.71-2.72-1.54C-208.23-3.474-207.525-3.548-206.647-2.878z"/>
			<path fill="#144691" d="M-206.136-4.848c0.32,0.288,0.26,0.365,1.474,0.892c0.727,0.316,2.212,0.595,2.212,0.595
				s-0.987-0.293-1.525-0.545c-0.538-0.253-1.137-0.579-1.813-1.095C-206.502-5.55-206.618-5.28-206.136-4.848z"/>
			<path fill="#144691" d="M-183.9-2.965c-0.299,0.144-0.411,0.232-1.586,0.504c-0.702,0.165-2.186,0.273-2.186,0.273
				s0.957-0.235,1.476-0.365c0.517-0.13,1.354-0.34,1.95-0.688c0.518-0.303,0.396-0.308,0.969-0.711
				c0.496-0.347,0.46,0.462,0.46,0.462S-183.446-3.181-183.9-2.965z"/>
			<path fill="#144691" d="M-192.845-15.631c-0.853,0.066,0.009,0.178-0.532,0.268c-0.357,0.059-0.663,0.115-1.738,0.736
				c-0.661,0.38-2.652,1.858-2.652,1.858s1.445-0.876,1.926-1.128c0.49-0.255,1.518-0.746,2.235-0.917
				c0.759-0.182,1.07-0.519,1.791-0.399C-191.093-15.093-192.845-15.631-192.845-15.631z"/>
		</g>
	</g>
</g>
<g id="reflect_4" display="none" opacity="0.8">
	<defs>
		<filter id="Adobe_OpacityMaskFilter" filterUnits="userSpaceOnUse" x="-288.797" y="-27.107" width="440.437" height="76.761">
			<feColorMatrix  type="matrix" values="1 0 0 0 0  0 1 0 0 0  0 0 1 0 0  0 0 0 1 0"/>
		</filter>
	</defs>
	<mask maskUnits="userSpaceOnUse" x="-288.797" y="-27.107" width="440.437" height="76.761" id="SVGID_2_" display="inline">
		<g filter="url(#Adobe_OpacityMaskFilter)">
			<linearGradient id="SVGID_3_" gradientUnits="userSpaceOnUse" x1="-55.4727" y1="7.0776" x2="-55.4727" y2="43.3125">
				<stop  offset="0" style="stop-color:#707070"/>
				<stop  offset="0.0195" style="stop-color:#696969"/>
				<stop  offset="0.128" style="stop-color:#434343"/>
				<stop  offset="0.2362" style="stop-color:#262626"/>
				<stop  offset="0.3429" style="stop-color:#111111"/>
				<stop  offset="0.4473" style="stop-color:#040404"/>
				<stop  offset="0.5468" style="stop-color:#000000"/>
			</linearGradient>
			
				<rect x="-299.722" y="7.078" fill="url(#SVGID_3_)" stroke="#FFFFFF" stroke-width="0.25" stroke-miterlimit="10" width="488.5" height="36.234"/>
		</g>
	</mask>
	<g display="inline" opacity="0.7" mask="url(#SVGID_2_)">
		<g>
			
				<text transform="matrix(1 0 0 -1 -255.668 8.2393)" fill="#134494" stroke="#FFFFFF" stroke-width="0.25" stroke-miterlimit="10" font-family="'Tunga-Bold'" font-size="53" letter-spacing="-2">Construction Manager</text>
		</g>
		<g>
			<path fill="#134494" stroke="#FFFFFF" stroke-width="0.5" stroke-miterlimit="10" d="M-258.85,8.751
				c0-0.665-0.54-1.204-1.205-1.204h-11.496c-0.665,0-1.205,0.539-1.205,1.204v11.495c0,0.666,0.54,1.205,1.205,1.205h11.496
				c0.665,0,1.205-0.539,1.205-1.205V8.751z"/>
			<path fill="#FFFFFF" d="M-260.317,8.979c-0.155-0.13-0.361-0.4-0.413-0.4c-0.051,0-0.142-0.025-0.206,0.039
				s-0.104,0.141-0.323,0.361c-0.219,0.219-1.934,2.063-2.102,2.23c-0.167,0.168-1.135,1.174-1.328,1.393s-1.354,1.406-1.47,1.586
				c-0.116,0.181-0.748,0.929-0.902,1.109s-1.187,1.264-1.354,1.405c-0.167,0.142-0.529,0.49-0.632,0.567
				c-0.103,0.078-0.167,0.245-0.206,0.258c-0.039,0.014-0.097-0.013-0.136,0.014c-0.039,0.025-0.367,0.283-0.483,0.322
				s-0.264,0.084-0.445,0.006c-0.181-0.077-0.28-0.252-0.354-0.354c-0.123-0.167-0.065-0.277-0.142-0.367
				c-0.077-0.091-0.303-0.349-0.387-0.342c-0.098,0.007-0.323,0.258-0.426,0.36c-0.103,0.104-0.38,0.336-0.374,0.361
				c0.025,0.101-0.008,0.1,0.095,0.189s0.25,0.232,0.314,0.258c0.064,0.026,0.088,0.012,0.326,0.146
				c0.166,0.094,0.327,0.34,0.353,0.43c0.026,0.089-0.03,0.261,0.073,0.363c0.079,0.078,0.413,0.381,0.516,0.471
				c0.103,0.09,0.528,0.375,0.709,0.477c0.181,0.104,0.567,0.221,0.722,0.221s0.567,0.012,0.735,0
				c0.167-0.014,0.632-0.092,0.773-0.117c0.142-0.025,0.464-0.09,0.581-0.154s0.116-0.014,0.116-0.064s0.025-0.193-0.026-0.18
				c-0.052,0.012-0.258,0.051-0.181,0.012c0.077-0.039,0.207-0.07,0.187-0.104c-0.036-0.059-0.071-0.141-0.2-0.141
				c-0.129,0-0.394,0.051-0.742,0.076c-0.231,0.018-0.627,0.016-0.871-0.025c-0.155-0.025-0.348-0.09-0.387-0.168
				c-0.039-0.076,0.026-0.18,0.09-0.258c0.064-0.076,0.182-0.256,0.258-0.348c0.064-0.078,0.123-0.161,0.103-0.18
				c-0.058-0.059,0-0.122,0.078-0.187c0.077-0.064,0.142-0.148,0.271-0.291c0.129-0.142,0.645-0.813,0.761-0.954
				c0.116-0.142,0.89-0.89,1.045-1.044c0.155-0.156,1.006-0.877,1.122-1.02c0.116-0.142,1.031-0.954,1.161-1.109
				c0.129-0.154,1.496-1.561,1.612-1.65s0.941-0.98,1.07-1.109s0.929-0.928,0.98-0.967c0.052-0.039,0.387-0.361,0.438-0.438
				c0.052-0.077,0.103-0.103,0.026-0.206S-260.317,8.979-260.317,8.979z"/>
		</g>
		<g>
			<path fill="#134494" stroke="#FFFFFF" stroke-width="0.5" stroke-miterlimit="10" d="M-274.717,24.726
				c0-0.662-0.537-1.197-1.198-1.197h-11.434c-0.662,0-1.198,0.535-1.198,1.197V36.16c0,0.662,0.537,1.199,1.198,1.199h11.434
				c0.662,0,1.198-0.537,1.198-1.199V24.726z"/>
			<path fill="#FFFFFF" d="M-286.004,36.419c-0.257-0.162-0.657-0.529-0.882-0.744c-0.203-0.195-0.651-0.736-0.65-0.791
				c0.001-0.055,0.285-0.396,0.312-0.375c0.044,0.031,0.149,0.297,0.236,0.363c0.087,0.064,0.364,0.248,0.443,0.193
				c0.029-0.02,2.199-2.186,2.312-2.301c0.113-0.113,2.161-2.109,2.324-2.295c0.083-0.096,0.869-0.92,0.901-0.961
				c0.082-0.1,0.739-0.723,0.833-0.816c0.091-0.094,0.66-0.635,0.677-0.664c0.017-0.029,0.139-0.455,0.142-0.516
				c0.004-0.061,0.206-0.381,0.163-0.43c-0.042-0.049-0.195-0.285-0.266-0.365s-0.32-0.395-0.287-0.438
				c0.041-0.055,0.771-0.682,0.841-0.785c0.055-0.08,0.749-0.734,0.861-0.799c0.303-0.176,0.669-0.262,0.929-0.291
				c0.26-0.031,0.61-0.008,0.808,0.031c0.222,0.045,0.408,0.076,0.567,0.295c0.122,0.168,0.225,0.57,0.224,0.883
				c0,0.393-0.014,0.324-0.055,0.623c-0.041,0.289-0.131,0.563-0.231,0.709c-0.1,0.145-0.438,0.486-0.616,0.672
				c-0.179,0.188-0.52,0.561-0.651,0.719s-0.375,0.389-0.403,0.385c-0.063-0.008-0.234-0.211-0.363-0.34
				c-0.129-0.131-0.355-0.322-0.417-0.311c-0.124,0.023-0.287,0.143-0.418,0.197c-0.187,0.08-0.354,0.078-0.405,0.127
				c-0.14,0.133-1.006,1.061-1.264,1.303s-1.556,1.572-1.963,1.967c-0.412,0.4-1.72,1.699-1.929,1.898
				c-0.21,0.199-1.399,1.383-1.554,1.52c-0.164,0.145-0.417,0.41-0.43,0.439c-0.026,0.055,0.107,0.242,0.164,0.307
				c0.057,0.064,0.284,0.221,0.356,0.244c0.031,0.012-0.06,0.115-0.125,0.189C-285.876,36.326-286.004,36.419-286.004,36.419z"/>
		</g>
		<g>
			<path fill="#134494" stroke="#FFFFFF" stroke-width="0.5" stroke-miterlimit="10" d="M-274.655,8.762
				c0-0.671-0.533-1.215-1.191-1.215h-11.361c-0.658,0-1.191,0.544-1.191,1.215v11.605c0,0.672,0.533,1.217,1.191,1.217h11.361
				c0.658,0,1.191-0.545,1.191-1.217V8.762z"/>
			<path fill-rule="evenodd" clip-rule="evenodd" fill="#FFFFFF" d="M-278.238,11.014c-0.036,0.084-0.089,0.117-0.153,0.07
				c-0.069-0.052-0.108-0.02-0.143,0.033c-0.054,0.08-0.123,0.085-0.189,0.034c-0.076-0.058-0.163-0.102-0.212-0.196
				c-0.057-0.104-0.156-0.061-0.227-0.02c-0.095,0.055-0.186,0.115-0.291,0.148c-0.051,0.018-0.075,0.068-0.103,0.111
				c-0.287,0.441-0.574,0.882-0.856,1.326c-0.037,0.059-0.065,0.09-0.137,0.069c-0.075-0.022-0.121,0.026-0.168,0.081
				c-0.412,0.465-0.774,0.973-1.194,1.434c-0.276,0.303-0.542,0.613-0.811,0.924c-0.037,0.042-0.072,0.058-0.121,0.026
				c-0.052-0.034-0.09-0.005-0.137,0.021c-0.209,0.113-0.331,0.32-0.498,0.479c-0.049,0.047-0.101,0.065-0.167,0.066
				c-0.191,0.004-0.381,0.011-0.572,0.02c-0.1,0.004-0.193,0.043-0.267,0.11c-0.071,0.065-0.079,0.028-0.103-0.038
				c-0.026-0.074,0.008-0.142,0.005-0.213c-0.008-0.166-0.013-0.334-0.021-0.5c-0.001-0.031,0-0.072-0.036-0.082
				c-0.134-0.031-0.419-0.017-0.563,0.014c-0.037,0.006-0.03,0.052-0.029,0.082c0.002,0.104,0.01,0.207,0.009,0.311
				c0,0.139-0.034,0.156-0.158,0.124c-0.167-0.043-0.333-0.048-0.473,0.082c-0.055,0.05-0.097,0.026-0.143-0.011
				c-0.303-0.25-0.608-0.498-0.911-0.748c-0.174-0.145-0.26-0.145-0.43,0.005c-0.059,0.052-0.119,0.104-0.174,0.159
				c-0.094,0.096-0.094,0.162,0.001,0.253c0.123,0.117,0.246,0.233,0.374,0.343c0.067,0.059,0.08,0.116,0.048,0.199
				c-0.054,0.143-0.038,0.172,0.094,0.246c0.149,0.086,0.293,0.184,0.467,0.211c0.041,0.006,0.072,0.025,0.065,0.079
				c-0.011,0.087,0.035,0.153,0.092,0.208c0.141,0.139,0.28,0.277,0.426,0.408c0.064,0.057,0.08,0.09,0.001,0.141
				c-0.07,0.046-0.129,0.102-0.119,0.201c0.005,0.051-0.035,0.089-0.067,0.122c-0.193,0.192-0.346,0.419-0.506,0.639
				c-0.009,0.013-0.018,0.026-0.027,0.039c-0.202,0.292-0.192,0.286-0.009,0.59c0.09,0.148,0.187,0.275,0.331,0.373
				c0.082,0.055,0.09,0.182,0.179,0.244c0.047,0.031,0.082,0.08,0.144,0.096c0.046,0.014,0.084,0.049,0.103,0.094
				c0.057,0.139,0.161,0.217,0.293,0.27c0.041,0.016,0.072,0.043,0.093,0.084c0.063,0.121,0.156,0.205,0.286,0.244
				c0.059,0.018,0.093,0.064,0.13,0.111c0.074,0.098,0.155,0.191,0.286,0.207c0.011,0.002,0.023,0.006,0.033,0.012
				c0.42,0.242,0.768,0.039,1.091-0.207c0.208-0.16,0.383-0.363,0.552-0.566c0.061-0.072,0.107-0.078,0.183-0.014
				c0.087,0.074,0.183,0.143,0.309,0.145c0.069,0,0.117,0.057,0.167,0.104c0.309,0.285,0.62,0.568,0.927,0.857
				c0.169,0.158,0.246,0.211,0.452-0.029c0.245-0.285,0.241-0.297-0.02-0.572c-0.249-0.264-0.495-0.529-0.748-0.791
				c-0.068-0.07-0.067-0.121-0.005-0.191c0.042-0.045,0.073-0.102,0.107-0.154c0.073-0.109,0.034-0.191-0.041-0.273
				c-0.016-0.018-0.032-0.035-0.048-0.053c-0.143-0.154-0.145-0.154-0.041-0.328c0.045-0.077,0.071-0.152,0.025-0.236
				c-0.026-0.052-0.017-0.1,0.014-0.146c0.056-0.081,0.109-0.164,0.163-0.246c0.059-0.092,0.058-0.184-0.016-0.264
				c-0.06-0.066-0.065-0.135-0.047-0.22c0.025-0.12,0.042-0.243,0.055-0.366c0.007-0.063,0.031-0.114,0.07-0.16
				c0.063-0.074,0.129-0.148,0.194-0.223c0.116-0.131,0.237-0.259,0.182-0.461c-0.008-0.031,0.026-0.055,0.046-0.08
				c0.231-0.268,0.463-0.537,0.694-0.807c0.149-0.174,0.294-0.352,0.445-0.523c0.186-0.213,0.39-0.411,0.577-0.625
				c0.132-0.15,0.225-0.33,0.368-0.473c0.096-0.096,0.175-0.208,0.274-0.301c0.141-0.134,0.152-0.216,0.02-0.348
				c-0.037-0.036-0.045-0.061-0.002-0.093c0.059-0.046,0.109-0.104,0.182-0.129c0.004-0.001,0.008-0.002,0.011-0.004
				c0.146-0.136,0.31-0.245,0.49-0.329c0.016-0.007,0.036-0.03,0.035-0.045c-0.014-0.129,0.07-0.23,0.089-0.351
				c0.009-0.052-0.014-0.08-0.054-0.108c-0.165-0.113-0.176-0.213-0.044-0.363c0.56-0.643,1.12-1.284,1.678-1.927
				c0.191-0.22,0.311-0.485,0.438-0.745c0.014-0.029,0.025-0.063-0.003-0.089c-0.036-0.032-0.071-0.011-0.107,0.01
				c-0.286,0.165-0.552,0.354-0.77,0.61c-0.467,0.551-0.942,1.096-1.412,1.643c-0.027,0.03-0.077,0.059-0.056,0.108
				C-278.343,11.036-278.29,11.027-278.238,11.014z"/>
		</g>
		<g>
			<path fill="#134494" stroke="#FFFFFF" stroke-width="0.5" stroke-miterlimit="10" d="M-259.039,24.728
				c0-0.662-0.54-1.199-1.205-1.199h-11.495c-0.665,0-1.205,0.537-1.205,1.199V36.16c0,0.662,0.54,1.199,1.205,1.199h11.495
				c0.665,0,1.205-0.537,1.205-1.199V24.728z"/>
			<path fill-rule="evenodd" clip-rule="evenodd" fill="#FFFFFF" d="M-268.188,36.677c-0.067-0.027-0.136-0.057-0.203-0.084
				c-0.007,0.014-0.1-0.039-0.138-0.078c-0.006,0.01-0.013,0.021-0.018,0.031c-0.103-0.049-0.21-0.09-0.305-0.15
				c-0.189-0.117-0.37-0.246-0.559-0.365c-0.045-0.027-0.104-0.035-0.124-0.041c-0.927-0.436-1.73-1.004-2.511-1.592
				c-0.055-0.033-0.21-0.139-0.212-0.168c0.09-0.195,0.161-0.311,0.333-0.432c0.067-0.047,0.109-0.129,0.163-0.195
				c0.042-0.053,0.079-0.109,0.125-0.156c0.253-0.26,0.511-0.516,0.765-0.775c0.292-0.297,0.563-0.619,0.881-0.887
				c0.398-0.334,0.702-0.748,1.037-1.135c0.014-0.018,0.019-0.043,0.03-0.064c0.067-0.105,0.122-0.223,0.204-0.314
				c0.216-0.24,0.458-0.459,0.661-0.709c0.208-0.256,0.241-0.283,0.547-0.174c0.023,0.01,0.046,0.018,0.067,0.027
				c0.447,0.207,0.91,0.309,1.399,0.195c0.173-0.041,0.361-0.076,0.508-0.168c0.157-0.1,0.283-0.254,0.404-0.398
				c0.166-0.195,0.316-0.404,0.472-0.607c0.372-0.494,0.74-0.99,1.115-1.48c0.337-0.439,0.738-0.818,1.158-1.18
				c0.517-0.445,1.066-0.844,1.665-1.174c0.191-0.014,0.382-0.029,0.573-0.045c0.016,0.18,0.03,0.361,0.045,0.541
				c-0.054,0.123-0.096,0.25-0.164,0.363c-0.208,0.34-0.419,0.682-0.642,1.012c-0.405,0.604-0.889,1.143-1.442,1.615
				c-0.533,0.455-1.08,0.893-1.615,1.346c-0.112,0.094-0.189,0.238-0.312,0.307c-0.11,0.061-0.172,0.121-0.181,0.227
				c-0.066,0.043-0.14,0.064-0.173,0.113c-0.184,0.273-0.272,0.572-0.221,0.904c0.035,0.229,0.213,0.363,0.342,0.533
				c0.097,0.127,0.197,0.256,0.275,0.395c0.079,0.143,0.015,0.309-0.131,0.369c-0.135,0.057-0.276,0.094-0.42,0.141
				c-0.006,0.027-0.015,0.061-0.029,0.105c-0.061-0.033-0.113-0.059-0.159-0.09c-0.537-0.365-1.072-0.734-1.609-1.102
				c-0.048-0.031-0.103-0.053-0.154-0.078c-0.011,0.02-0.021,0.037-0.032,0.057c0.631,0.441,1.261,0.881,1.895,1.322
				c-0.328,0.342-0.646,0.674-0.982,1.025c-0.762-0.504-1.522-1.006-2.283-1.51c-0.008,0.014-0.018,0.027-0.026,0.039
				c0.724,0.549,1.484,1.049,2.261,1.553c-0.087,0.082-0.152,0.143-0.222,0.207c-0.145-0.09-0.279-0.176-0.441-0.279
				c0.035,0.24,0.27,0.236,0.362,0.393c-0.073,0.109-0.15,0.225-0.229,0.342c-0.178,0.258-0.359,0.514-0.533,0.775
				c-0.11,0.164-0.208,0.338-0.314,0.506c-0.073,0.115-0.154,0.227-0.229,0.34c-0.148,0.227-0.263,0.479-0.502,0.633
				C-268.073,36.667-268.13,36.671-268.188,36.677z M-261.049,26.003c0.012-0.15-0.052-0.254-0.188-0.314
				c-0.154-0.066-0.29,0.014-0.37,0.113c-0.105,0.133-0.185,0.297-0.233,0.463c-0.045,0.156,0.09,0.25,0.3,0.232
				C-261.345,26.482-261.063,26.197-261.049,26.003z M-269.133,31.357c0.016,0.014,0.031,0.027,0.047,0.041
				c0.251-0.322,0.503-0.646,0.73-0.939C-268.624,30.714-268.864,31.05-269.133,31.357z"/>
		</g>
	</g>
</g>
<g id="_x34__group" display="none">
	
		<text transform="matrix(1 0 0 1 -255.668 7.8262)" display="inline" fill="#134494" stroke="#FFFFFF" stroke-width="0.25" stroke-miterlimit="10" font-family="'Tunga-Bold'" font-size="53" letter-spacing="-2">Construction Manager</text>
	<g display="inline">
		<path fill="#134494" stroke="#FFFFFF" stroke-width="0.5" stroke-miterlimit="10" d="M-258.668,6.622
			c0,0.665-0.54,1.205-1.205,1.205h-11.496c-0.665,0-1.205-0.54-1.205-1.205V-4.874c0-0.665,0.54-1.205,1.205-1.205h11.496
			c0.665,0,1.205,0.54,1.205,1.205V6.622z"/>
		<path fill="#FFFFFF" d="M-260.136,6.395c-0.155,0.129-0.361,0.4-0.413,0.4c-0.051,0-0.142,0.026-0.206-0.039
			s-0.104-0.142-0.323-0.361c-0.219-0.219-1.934-2.063-2.102-2.231c-0.167-0.167-1.135-1.173-1.328-1.393s-1.354-1.406-1.47-1.586
			c-0.116-0.181-0.748-0.929-0.902-1.109s-1.187-1.264-1.354-1.405c-0.167-0.142-0.529-0.49-0.632-0.568
			c-0.103-0.077-0.167-0.245-0.206-0.258c-0.039-0.013-0.097,0.013-0.136-0.013s-0.367-0.284-0.483-0.322
			c-0.116-0.039-0.264-0.084-0.445-0.007c-0.181,0.078-0.28,0.252-0.354,0.355c-0.123,0.167-0.065,0.277-0.142,0.367
			c-0.077,0.09-0.303,0.348-0.387,0.342c-0.098-0.007-0.323-0.258-0.426-0.361c-0.103-0.104-0.38-0.335-0.374-0.361
			c0.025-0.1-0.008-0.099,0.095-0.189c0.103-0.09,0.25-0.232,0.314-0.258c0.064-0.026,0.088-0.011,0.326-0.146
			c0.166-0.094,0.327-0.34,0.353-0.43c0.026-0.09-0.03-0.262,0.073-0.363c0.079-0.078,0.413-0.38,0.516-0.471
			c0.103-0.09,0.528-0.374,0.709-0.477c0.181-0.104,0.567-0.219,0.722-0.219s0.567-0.013,0.735,0
			c0.167,0.013,0.632,0.09,0.773,0.116c0.142,0.026,0.464,0.09,0.581,0.155c0.116,0.064,0.116,0.013,0.116,0.064
			c0,0.052,0.025,0.194-0.026,0.181c-0.052-0.013-0.258-0.052-0.181-0.013c0.077,0.039,0.207,0.071,0.187,0.103
			c-0.036,0.06-0.071,0.142-0.2,0.142c-0.129,0-0.394-0.052-0.742-0.078c-0.231-0.017-0.627-0.015-0.871,0.026
			c-0.155,0.026-0.348,0.09-0.387,0.167c-0.039,0.078,0.026,0.181,0.09,0.258c0.064,0.077,0.182,0.257,0.258,0.348
			c0.064,0.078,0.123,0.161,0.103,0.181c-0.058,0.059,0,0.123,0.078,0.187c0.077,0.064,0.142,0.148,0.271,0.291
			c0.129,0.142,0.645,0.813,0.761,0.954c0.116,0.142,0.89,0.89,1.045,1.044c0.155,0.155,1.006,0.877,1.122,1.019
			c0.116,0.142,1.031,0.954,1.161,1.109c0.129,0.155,1.496,1.561,1.612,1.651c0.116,0.09,0.941,0.98,1.07,1.109
			s0.929,0.928,0.98,0.967c0.052,0.039,0.387,0.361,0.438,0.438c0.052,0.077,0.103,0.103,0.026,0.206S-260.136,6.395-260.136,6.395z
			"/>
	</g>
	<g display="inline">
		<path fill="#134494" stroke="#FFFFFF" stroke-width="0.5" stroke-miterlimit="10" d="M-274.536-9.354
			c0,0.662-0.537,1.198-1.198,1.198h-11.434c-0.662,0-1.198-0.537-1.198-1.198v-11.434c0-0.662,0.537-1.198,1.198-1.198h11.434
			c0.662,0,1.198,0.537,1.198,1.198V-9.354z"/>
		<path fill="#FFFFFF" d="M-285.822-21.047c-0.257,0.162-0.657,0.529-0.882,0.745c-0.203,0.195-0.651,0.736-0.65,0.791
			c0.001,0.053,0.285,0.396,0.312,0.375c0.044-0.033,0.149-0.297,0.236-0.363s0.364-0.248,0.443-0.194
			c0.029,0.02,2.199,2.186,2.312,2.3s2.161,2.109,2.324,2.296c0.083,0.096,0.869,0.919,0.901,0.959
			c0.082,0.101,0.739,0.723,0.833,0.818c0.091,0.093,0.66,0.634,0.677,0.664c0.017,0.029,0.139,0.455,0.142,0.515
			c0.004,0.061,0.206,0.382,0.163,0.43c-0.042,0.048-0.195,0.285-0.266,0.365c-0.071,0.081-0.32,0.395-0.287,0.438
			c0.041,0.053,0.771,0.681,0.841,0.784c0.055,0.08,0.749,0.734,0.861,0.8c0.303,0.176,0.669,0.262,0.929,0.292
			c0.26,0.03,0.61,0.008,0.808-0.032c0.222-0.044,0.408-0.077,0.567-0.296c0.122-0.167,0.225-0.57,0.224-0.882
			c0-0.393-0.014-0.325-0.055-0.624c-0.041-0.289-0.131-0.562-0.231-0.708c-0.1-0.146-0.438-0.487-0.616-0.673
			c-0.179-0.186-0.52-0.56-0.651-0.718s-0.375-0.388-0.403-0.385c-0.063,0.007-0.234,0.211-0.363,0.341
			c-0.129,0.129-0.355,0.321-0.417,0.31c-0.124-0.022-0.287-0.142-0.418-0.198c-0.187-0.08-0.354-0.077-0.405-0.126
			c-0.14-0.133-1.006-1.061-1.264-1.303s-1.556-1.572-1.963-1.967c-0.412-0.399-1.72-1.699-1.929-1.898
			c-0.21-0.2-1.399-1.382-1.554-1.519c-0.164-0.145-0.417-0.411-0.43-0.439c-0.026-0.055,0.107-0.243,0.164-0.308
			c0.057-0.064,0.284-0.22,0.356-0.245c0.031-0.011-0.06-0.114-0.125-0.189C-285.695-20.953-285.822-21.047-285.822-21.047z"/>
	</g>
	<g display="inline">
		<path fill="#134494" stroke="#FFFFFF" stroke-width="0.5" stroke-miterlimit="10" d="M-274.474,6.61
			c0,0.671-0.533,1.216-1.191,1.216h-11.361c-0.658,0-1.191-0.544-1.191-1.216V-4.995c0-0.672,0.533-1.216,1.191-1.216h11.361
			c0.658,0,1.191,0.544,1.191,1.216V6.61z"/>
		<path fill-rule="evenodd" clip-rule="evenodd" fill="#FFFFFF" d="M-278.057,4.358c-0.036-0.083-0.089-0.116-0.153-0.069
			c-0.069,0.051-0.108,0.019-0.143-0.034c-0.054-0.081-0.123-0.085-0.189-0.034c-0.076,0.058-0.163,0.102-0.212,0.196
			c-0.057,0.105-0.156,0.061-0.227,0.02c-0.095-0.055-0.186-0.115-0.291-0.149c-0.051-0.017-0.075-0.068-0.103-0.111
			c-0.287-0.441-0.574-0.881-0.856-1.325c-0.037-0.059-0.065-0.091-0.137-0.07c-0.075,0.022-0.121-0.027-0.168-0.081
			c-0.412-0.465-0.774-0.974-1.194-1.434c-0.276-0.303-0.542-0.614-0.811-0.924c-0.037-0.042-0.072-0.058-0.121-0.026
			c-0.052,0.034-0.09,0.005-0.137-0.021c-0.209-0.114-0.331-0.32-0.498-0.479c-0.049-0.047-0.101-0.065-0.167-0.067
			c-0.191-0.003-0.381-0.01-0.572-0.019c-0.1-0.005-0.193-0.044-0.267-0.111c-0.071-0.065-0.079-0.029-0.103,0.038
			c-0.026,0.075,0.008,0.142,0.005,0.212c-0.008,0.167-0.013,0.334-0.021,0.5c-0.001,0.032,0,0.073-0.036,0.082
			c-0.134,0.032-0.419,0.017-0.563-0.013c-0.037-0.007-0.03-0.052-0.029-0.083c0.002-0.104,0.01-0.207,0.009-0.311
			c0-0.139-0.034-0.156-0.158-0.124c-0.167,0.043-0.333,0.048-0.473-0.082c-0.055-0.05-0.097-0.027-0.143,0.011
			c-0.303,0.25-0.608,0.498-0.911,0.748c-0.174,0.144-0.26,0.145-0.43-0.005c-0.059-0.052-0.119-0.104-0.174-0.16
			c-0.094-0.096-0.094-0.161,0.001-0.252c0.123-0.117,0.246-0.233,0.374-0.343c0.067-0.058,0.08-0.116,0.048-0.198
			c-0.054-0.143-0.038-0.172,0.094-0.247c0.149-0.085,0.293-0.183,0.467-0.21c0.041-0.006,0.072-0.025,0.065-0.079
			c-0.011-0.087,0.035-0.153,0.092-0.208c0.141-0.138,0.28-0.277,0.426-0.408c0.064-0.056,0.08-0.089,0.001-0.141
			c-0.07-0.045-0.129-0.101-0.119-0.201c0.005-0.051-0.035-0.088-0.067-0.122c-0.193-0.193-0.346-0.419-0.506-0.639
			c-0.009-0.013-0.018-0.026-0.027-0.039c-0.202-0.292-0.192-0.287-0.009-0.591c0.09-0.149,0.187-0.275,0.331-0.373
			c0.082-0.055,0.09-0.182,0.179-0.244c0.047-0.033,0.082-0.082,0.144-0.097c0.046-0.013,0.084-0.048,0.103-0.093
			c0.057-0.138,0.161-0.217,0.293-0.269c0.041-0.016,0.072-0.043,0.093-0.085c0.063-0.12,0.156-0.205,0.286-0.243
			c0.059-0.017,0.093-0.064,0.13-0.112c0.074-0.097,0.155-0.19,0.286-0.207c0.011-0.002,0.023-0.006,0.033-0.011
			c0.42-0.243,0.768-0.04,1.091,0.208c0.208,0.159,0.383,0.362,0.552,0.565c0.061,0.073,0.107,0.079,0.183,0.015
			c0.087-0.075,0.183-0.143,0.309-0.145c0.069,0,0.117-0.058,0.167-0.104c0.309-0.285,0.62-0.569,0.927-0.858
			c0.169-0.158,0.246-0.211,0.452,0.029c0.245,0.286,0.241,0.296-0.02,0.573c-0.249,0.264-0.495,0.53-0.748,0.79
			c-0.068,0.071-0.067,0.122-0.005,0.191c0.042,0.045,0.073,0.102,0.107,0.154c0.073,0.111,0.034,0.191-0.041,0.274
			c-0.016,0.018-0.032,0.035-0.048,0.052c-0.143,0.154-0.145,0.155-0.041,0.329c0.045,0.077,0.071,0.152,0.025,0.236
			c-0.026,0.052-0.017,0.099,0.014,0.146c0.056,0.082,0.109,0.165,0.163,0.247c0.059,0.092,0.058,0.183-0.016,0.263
			c-0.06,0.066-0.065,0.135-0.047,0.22c0.025,0.12,0.042,0.244,0.055,0.366c0.007,0.063,0.031,0.114,0.07,0.161
			c0.063,0.074,0.129,0.147,0.194,0.222c0.116,0.131,0.237,0.259,0.182,0.461c-0.008,0.032,0.026,0.055,0.046,0.08
			c0.231,0.269,0.463,0.538,0.694,0.807c0.149,0.174,0.294,0.352,0.445,0.523c0.186,0.213,0.39,0.411,0.577,0.625
			c0.132,0.15,0.225,0.331,0.368,0.473c0.096,0.096,0.175,0.208,0.274,0.301c0.141,0.134,0.152,0.216,0.02,0.347
			c-0.037,0.037-0.045,0.061-0.002,0.093c0.059,0.046,0.109,0.104,0.182,0.129c0.004,0,0.008,0.002,0.011,0.004
			c0.146,0.136,0.31,0.245,0.49,0.329c0.016,0.007,0.036,0.031,0.035,0.045c-0.014,0.129,0.07,0.231,0.089,0.351
			c0.009,0.051-0.014,0.08-0.054,0.108c-0.165,0.113-0.176,0.213-0.044,0.363c0.56,0.643,1.12,1.285,1.678,1.927
			c0.191,0.22,0.311,0.485,0.438,0.745c0.014,0.029,0.025,0.063-0.003,0.089c-0.036,0.033-0.071,0.011-0.107-0.01
			c-0.286-0.165-0.552-0.354-0.77-0.611c-0.467-0.551-0.942-1.095-1.412-1.642c-0.027-0.03-0.077-0.059-0.056-0.108
			C-278.162,4.336-278.108,4.345-278.057,4.358z"/>
	</g>
	<g>
		<path display="inline" fill="#134494" stroke="#FFFFFF" stroke-width="0.5" stroke-miterlimit="10" d="M-274.661-24.945
			c0,0.665-0.539,1.204-1.204,1.204h-11.49c-0.665,0-1.204-0.539-1.204-1.204v-11.49c0-0.665,0.539-1.204,1.204-1.204h11.49
			c0.665,0,1.204,0.539,1.204,1.204V-24.945z"/>
		<path display="inline" fill-rule="evenodd" clip-rule="evenodd" fill="#FFFFFF" d="M-276.741-31.403
			c0.094,0.104,0.134,0.238,0.197,0.358c0.152,0.287,0.291,0.579,0.436,0.869c0.013,0.025,0.031,0.048,0.067,0.064
			c-0.004-0.018-0.005-0.038-0.014-0.054c-0.058-0.115-0.119-0.229-0.175-0.344c-0.012-0.025-0.01-0.058,0.006-0.092
			c0.004,0.011,0.01,0.023,0.015,0.035c0.033,0.097,0.089,0.153,0.202,0.131c0.049-0.01,0.088,0.014,0.132,0.044
			c0.094,0.065,0.182,0.13,0.232,0.236c0.005,0.01,0.014,0.021,0.022,0.023c0.118,0.039,0.136,0.176,0.244,0.236
			c0,0.03-0.002,0.063,0,0.094c0.008,0.094-0.006,0.171-0.117,0.201c-0.032,0.009-0.051,0.047-0.052,0.093
			c-0.002,0.074-0.021,0.144-0.109,0.172c-0.024,0.008-0.039,0.046-0.055,0.072c-0.076,0.118-0.109,0.255-0.169,0.38
			c-0.085,0.176-0.125,0.375-0.261,0.525c-0.029,0.114-0.144,0.13-0.222,0.182c-0.084,0.055-0.188,0.058-0.291,0.016
			c-0.048-0.019-0.118-0.028-0.16-0.006c-0.074,0.038-0.149,0.015-0.221,0.03c-0.118,0.026-0.243,0.011-0.357,0.063
			c-0.009,0.004-0.021,0.004-0.032,0.002c-0.154-0.025-0.3,0.044-0.453,0.036c-0.067-0.003-0.135,0.021-0.203,0.03
			c-0.063,0.009-0.123,0.001-0.188,0.027c-0.075,0.03-0.171-0.008-0.25,0.04c-0.114-0.034-0.211,0.036-0.303,0.074
			c-0.149,0.062-0.263,0.002-0.364-0.071c-0.186-0.134-0.297-0.327-0.359-0.548c-0.038-0.134-0.07-0.273-0.138-0.392
			c-0.046-0.081-0.062-0.164-0.092-0.246c-0.03-0.083-0.044-0.171-0.069-0.255c-0.043-0.144-0.064-0.293-0.12-0.433
			c-0.014-0.034-0.012-0.074-0.019-0.117c0.035-0.006,0.066-0.012,0.113-0.021c-0.016-0.05-0.02-0.105-0.047-0.143
			c-0.035-0.047-0.023-0.09-0.022-0.139c0.048-0.023,0.102-0.004,0.153-0.038c0.057-0.036,0.104,0,0.143,0.08
			c0.029,0.06,0.051,0.124,0.083,0.182c0.06,0.109,0.125,0.215,0.195,0.334c0.107,0,0.222,0.006,0.337-0.001
			c0.105-0.007,0.21-0.028,0.336-0.046c-0.09-0.066-0.081-0.163-0.117-0.242c-0.034-0.074-0.046-0.158-0.07-0.238
			c-0.009-0.029-0.024-0.056-0.042-0.095c0.082-0.022,0.158-0.012,0.232-0.009c0.026,0,0.063,0.026,0.076,0.05
			c0.083,0.165,0.161,0.333,0.243,0.503c0.202,0.051,0.404-0.042,0.625-0.021c-0.014-0.042-0.056-0.058-0.064-0.086
			c-0.01-0.036,0.001-0.078-0.003-0.116c-0.013-0.109-0.044-0.217-0.077-0.318c-0.025-0.078,0.022-0.081,0.049-0.078
			c0.066,0.006,0.139,0.017,0.193,0.051c0.037,0.023,0.049,0.087,0.069,0.135c0.019,0.047,0.033,0.097,0.052,0.151
			c0.04-0.02,0.077-0.037,0.12-0.058c-0.017-0.058-0.063-0.111-0.027-0.179c0.029-0.054,0.049-0.112,0.068-0.156
			c0.03,0.002,0.064,0.016,0.083,0.004c0.066-0.042,0.126-0.092,0.201-0.149c-0.003-0.005-0.017-0.025-0.024-0.048
			c-0.004-0.013-0.004-0.032,0.002-0.044c0.042-0.074,0.038-0.086-0.033-0.111c-0.016-0.005-0.041-0.024-0.04-0.034
			c0.007-0.047-0.026-0.068-0.049-0.098c-0.014-0.02-0.021-0.05-0.018-0.075c0.003-0.027,0.061-0.063-0.021-0.063
			c-0.004,0-0.015-0.028-0.013-0.042c0.006-0.063-0.049-0.105-0.082-0.112c-0.094-0.021-0.172-0.068-0.257-0.105
			c-0.057-0.024-0.117-0.029-0.142-0.098c-0.005-0.013-0.036-0.016-0.055-0.024c-0.063-0.028-0.137-0.091-0.164-0.143
			c-0.068-0.127-0.136-0.255-0.2-0.384c-0.048-0.098-0.102-0.191-0.15-0.288c-0.049-0.097-0.101-0.192-0.15-0.288
			c-0.111-0.215-0.22-0.431-0.334-0.645c-0.035-0.064-0.082-0.122-0.128-0.18c-0.027-0.034-0.075-0.031-0.112,0.004
			c-0.061,0.058-0.117,0.119-0.177,0.176c-0.274,0.264-0.542,0.532-0.825,0.787c-0.101,0.09-0.207,0.176-0.301,0.274
			c-0.177,0.184-0.319,0.394-0.449,0.613c-0.098,0.165-0.174,0.339-0.246,0.515c-0.041,0.101-0.095,0.198-0.092,0.312
			c0,0.005,0.002,0.012,0,0.017c-0.059,0.14-0.079,0.29-0.109,0.438c-0.006,0.031-0.019,0.06-0.023,0.09
			c-0.004,0.021-0.002,0.044,0,0.066c0.022,0.308-0.053,0.611-0.034,0.919c-0.042,0.13-0.053,0.277-0.198,0.349
			c-0.024,0.012-0.052,0.035-0.058,0.058c-0.029,0.111-0.131,0.103-0.207,0.142c-0.029,0.015-0.034-0.008-0.048-0.009
			c-0.029-0.002-0.067-0.003-0.088,0.013c-0.056,0.041-0.093,0.106-0.164,0.128c-0.004,0.001-0.006,0.025-0.001,0.03
			c0.006,0.006,0.021,0.005,0.032,0.004c0.004,0,0.007-0.009,0.012-0.011c0.068-0.03,0.082,0.091,0.134,0.058
			c0.053-0.033,0.109-0.049,0.146-0.014c0.043,0.04,0.077,0.017,0.117,0.021c0.105,0.013,0.214,0.017,0.314,0.044
			c0.049,0.013,0.095,0.013,0.142,0.017c0.049,0.005,0.095-0.001,0.133,0.046c0.014,0.018,0.073,0.028,0.085,0.017
			c0.067-0.066,0.101,0.013,0.149,0.025c-0.003,0.066,0.055,0.067,0.094,0.092c0.111,0.073,0.11,0.075,0.172,0.208
			c0.015,0.033,0.019,0.073,0.04,0.1c0.054,0.068,0.065,0.143,0.062,0.226c-0.004,0.071-0.001,0.142-0.001,0.227
			c0.125-0.017,0.24-0.032,0.362-0.048c0-0.022,0-0.049,0-0.083c0.025-0.003,0.047-0.011,0.065-0.006
			c0.16,0.043,0.159,0.04,0.356,0.001c0.105-0.021,0.213-0.029,0.319-0.033c0.084-0.003,0.129,0.06,0.083,0.124
			c-0.058,0.079-0.051,0.161-0.052,0.246c-0.001,0.072,0,0.145,0,0.217c0,0.195,0,0.195,0.102,0.378
			c-0.024,0.067-0.09,0.1-0.146,0.097c-0.123-0.008-0.223,0.06-0.337,0.08c-0.119,0.021-0.242,0.05-0.362,0.087
			c-0.178,0.055-0.369,0.061-0.543,0.137c-0.141-0.016-0.266,0.064-0.405,0.071c-0.096,0.005-0.187,0.064-0.289,0.062
			c-0.052,0.075-0.141,0.01-0.21,0.061c-0.052,0.039-0.143,0.023-0.215,0.04c-0.167,0.039-0.332,0.088-0.5,0.12
			c-0.169,0.032-0.333,0.083-0.502,0.118c-0.136,0.028-0.277,0.041-0.412,0.089c-0.07,0.025-0.156,0.015-0.234,0.036
			c-0.066,0.018-0.103-0.015-0.11-0.082c-0.016-0.131-0.069-0.255-0.068-0.389c0.002-0.133-0.004-0.267,0.002-0.399
			c0.004-0.073,0.009-0.153,0.043-0.214c0.034-0.063-0.015-0.068-0.037-0.077c-0.038-0.015-0.089,0.016-0.125-0.039
			c-0.031,0.089-0.061,0.174-0.09,0.26c-0.037,0.108-0.053,0.113-0.159,0.233c-0.048,0.055-0.087,0.117-0.157,0.141
			c-0.043,0.015-0.098-0.009-0.135,0.036c-0.201-0.02-0.387,0.086-0.589,0.068c-0.069-0.006-0.135-0.014-0.204-0.032
			c-0.165-0.043-0.32-0.123-0.494-0.136c-0.084-0.07-0.198-0.06-0.291-0.103c-0.101-0.046-0.21-0.049-0.313-0.09
			c-0.095-0.038-0.194-0.075-0.293-0.094c-0.145-0.027-0.275-0.093-0.419-0.121c-0.119-0.023-0.238-0.066-0.357-0.101
			c-0.129-0.037-0.209-0.159-0.313-0.241c-0.01-0.008-0.007-0.03-0.013-0.044c-0.069-0.166-0.136-0.33-0.124-0.516
			c0.008-0.118-0.011-0.238,0.034-0.353c0.017-0.043,0.017-0.104,0.047-0.128c0.065-0.05,0.037-0.148,0.115-0.189
			c0.069-0.036,0.147,0.005,0.206-0.023c0.081-0.04,0.159-0.021,0.238-0.03c0.084-0.009,0.168-0.027,0.252-0.031
			c0.052-0.002,0.103-0.009,0.158,0.022c0.034,0.02,0.101-0.039,0.151,0.009c0.157-0.015,0.305,0.044,0.454,0.073
			c0.147,0.029,0.301,0.032,0.444,0.09c0.048,0.02,0.12,0.022,0.165-0.042c0.019-0.027,0.041-0.047,0.037-0.085
			c-0.004-0.043-0.001-0.086-0.001-0.137c-0.069,0-0.13,0.003-0.19,0c-0.157-0.008-0.313,0.017-0.47-0.028
			c-0.073-0.021-0.167-0.027-0.223,0.061c-0.003,0.004-0.042-0.005-0.042-0.009c-0.004-0.065-0.05-0.056-0.093-0.056
			c-0.105,0-0.211,0-0.316,0c-0.076,0-0.137-0.013-0.178-0.092c-0.038-0.071-0.122-0.055-0.176-0.03
			c-0.053,0.024-0.081,0.009-0.129-0.004c-0.069-0.02-0.138-0.048-0.217-0.043c-0.12,0.006-0.228-0.113-0.231-0.236
			c-0.003-0.117,0-0.233,0-0.35c0-0.033,0.01-0.077-0.006-0.096c-0.084-0.099-0.057-0.215-0.06-0.326
			c-0.003-0.111,0.003-0.222-0.001-0.333c-0.005-0.13,0.05-0.253,0.037-0.386c-0.012-0.126-0.022-0.259,0.003-0.381
			c0.022-0.108,0.021-0.214,0.029-0.32c0.004-0.058,0.023-0.113,0.031-0.17c0.007-0.052,0.011-0.101,0.03-0.154
			c0.09-0.262,0.344-0.465,0.596-0.442c0.021,0.001,0.043,0,0.074,0c-0.055-0.074-0.1-0.143-0.154-0.203
			c-0.054-0.061-0.072-0.138-0.113-0.203c-0.077-0.123-0.091-0.263-0.132-0.396c-0.047-0.15-0.043-0.311-0.099-0.458
			c0.023-0.115-0.036-0.223-0.035-0.336c0-0.051,0.021-0.106-0.028-0.156c-0.017-0.017,0-0.072,0.01-0.108
			c0.01-0.04,0.032-0.076,0.045-0.114c0.067-0.184,0.125-0.213,0.32-0.163c0.026,0.006,0.054,0.005,0.081,0.005
			c0.203,0,0.386,0.085,0.578,0.135c0.023,0.006,0.042,0.032,0.063,0.049c0.138,0.115,0.232,0.266,0.333,0.412
			c0.118,0.17,0.168,0.359,0.166,0.564c0,0.055,0.005,0.111-0.001,0.167c-0.012,0.113,0.032,0.198,0.114,0.27
			c0.013,0.011,0.024,0.023,0.027,0.027c0.16,0.015,0.314,0.013,0.459,0.05c0.082,0.021,0.161,0.011,0.237,0.029
			c0.118,0.028,0.241,0.031,0.355,0.068c0.053,0.017,0.095,0.068,0.134,0.098c0.043,0.147-0.062,0.224-0.125,0.323
			c0.052,0.025,0.129-0.021,0.158,0.059c-0.018,0.017-0.016,0.05-0.074,0.028c-0.072-0.027-0.161-0.006-0.27-0.006
			c0.04,0.029,0.06,0.048,0.083,0.062c0.048,0.027,0.075,0.064,0.104,0.112c0.101,0.163,0.19,0.332,0.267,0.507
			c0.008,0.019,0.03,0.032,0.048,0.049c0.024-0.138,0.061-0.273,0.048-0.414c-0.007-0.081,0.056-0.152,0.033-0.236
			c0.045-0.039,0.087-0.081,0.134-0.117c0.028-0.021,0.064-0.033,0.099-0.049c0-0.243,0-0.487,0-0.731
			c0-0.026-0.002-0.054-0.009-0.08c-0.027-0.1-0.028-0.1,0.077-0.153c-0.028-0.041-0.08-0.066-0.07-0.131
			c0.011-0.076-0.045-0.13-0.1-0.173c-0.086-0.069-0.178-0.132-0.267-0.198c0.02-0.056,0.032-0.106,0.096-0.13
			c0.086-0.033,0.109-0.027,0.14,0.06c0.036,0.102,0.074,0.204,0.134,0.294c0.026,0.038,0.064,0.068,0.099,0.104
			c0.055-0.09,0.114-0.164,0.149-0.248c0.058-0.14,0.186-0.145,0.298-0.159c0.094-0.012,0.192-0.011,0.292,0.012
			c0.093,0.02,0.179,0.057,0.265,0.088c0.12,0.044,0.204,0.143,0.263,0.261c0.073,0.146,0.107,0.301,0.138,0.46
			c0.027,0.141,0.019,0.28,0.031,0.42c0.009,0.105-0.04,0.2-0.037,0.303c0.003,0.1,0.006,0.2-0.001,0.299
			c-0.004,0.057-0.054,0.112-0.029,0.169c0.041,0.094,0.012,0.195,0.036,0.286c0.032,0.124,0.006,0.251,0.035,0.369
			c0.031,0.129,0.018,0.257,0.035,0.417c0.029-0.052,0.059-0.081,0.057-0.107c-0.014-0.23,0.059-0.456,0.036-0.686
			c0.062-0.277,0.001-0.56,0.041-0.835c0.027-0.192,0.014-0.38,0.025-0.57c0.002-0.037,0.006-0.072-0.027-0.106
			c-0.04-0.042-0.055-0.128-0.05-0.159c0.012-0.064,0.035-0.106,0.103-0.142c0.139-0.072,0.265-0.166,0.396-0.251
			c0.031-0.021,0.06-0.042,0.091-0.062c0.021-0.014,0.043-0.031,0.067-0.037c0.116-0.026,0.113-0.025,0.121-0.126
			c0.007-0.085,0.013-0.171,0.036-0.252c0.012-0.043,0.04-0.09,0.097-0.108c0.068-0.021,0.167-0.02,0.249,0.018
			c0.162-0.151,0.309-0.315,0.437-0.498c0.074-0.106,0.171-0.196,0.256-0.294c0.035-0.04,0.079-0.069,0.099-0.126
			c0.012-0.034,0.062-0.056,0.097-0.08c0.017-0.011,0.045-0.022,0.061-0.015c0.048,0.019,0.016,0.044,0.002,0.071
			c-0.005,0.009,0.006,0.036,0.016,0.041c0.01,0.005,0.035,0,0.043-0.009c0.093-0.107,0.208-0.191,0.288-0.313
			c0.08-0.122,0.193-0.221,0.29-0.331c0.061-0.068,0.118-0.14,0.177-0.209c0.005-0.007,0.014-0.021,0.012-0.023
			c-0.057-0.06-0.005-0.139-0.035-0.202c-0.041-0.083-0.028-0.163-0.006-0.248c0.027-0.104,0.127-0.123,0.19-0.184
			c0.039-0.037,0.12-0.009,0.157,0.04c0.03,0.039,0.101,0.075,0.137,0.061c0.039-0.015,0.065-0.013,0.104,0.01
			c0.147,0.087,0.284,0.187,0.405,0.308c0.053,0.052,0.094,0.129,0.19,0.104c0.043,0.046,0.098,0.086,0.127,0.14
			c0.035,0.062,0.057,0.134,0.067,0.205c0.009,0.069,0.031,0.131,0.058,0.193c0.053,0.124,0.057,0.133,0.049,0.275
			c0.028-0.028,0.042-0.046,0.061-0.06c0.015-0.011,0.035-0.016,0.073-0.033c-0.017,0.125,0.015,0.222,0.059,0.32
			c0.039,0.089,0.061,0.19,0.067,0.288c0.006,0.092,0.038,0.176,0.074,0.253c0.08,0.172,0.166,0.343,0.249,0.513
			c0.102,0.208,0.219,0.408,0.316,0.619c0.017,0.038,0.06,0.064,0.091,0.095c0.023,0.024,0.051,0.044,0.07,0.071
			c0.083,0.12,0.076,0.181-0.03,0.313c0.02,0.086,0.089,0.148,0.104,0.241c0.019,0.114,0.03,0.112-0.061,0.2
			c-0.004-0.018-0.003-0.036-0.011-0.047c-0.008-0.01-0.026-0.021-0.038-0.019c-0.011,0.001-0.023,0.019-0.026,0.031
			c-0.004,0.021-0.001,0.044-0.001,0.067c-0.006,0-0.012,0.001-0.017,0c-0.023-0.01-0.053-0.035-0.067-0.028
			c-0.03,0.016-0.01,0.04,0.002,0.067c0.024,0.052-0.051,0.01-0.05,0.033c0.063,0.136,0.125,0.259,0.18,0.386
			c0.127,0.292,0.278,0.572,0.417,0.859c0.011,0.024,0.009,0.062,0.043,0.048c0.059-0.024-0.032-0.042-0.008-0.069
			c0.006-0.008,0.01-0.018,0.014-0.026c0.058,0.02,0.045,0.111,0.121,0.126c-0.014-0.056-0.011-0.123-0.039-0.142
			c-0.067-0.045-0.054-0.125-0.1-0.179c-0.042-0.049-0.057-0.12-0.085-0.18c-0.062-0.129-0.121-0.261-0.19-0.386
			C-276.742-31.333-276.736-31.367-276.741-31.403z M-282.605-31.642c0-0.212-0.001-0.417,0-0.622
			c0.001-0.193-0.062-0.37-0.133-0.545c-0.058-0.144-0.172-0.198-0.313-0.229c-0.068-0.015-0.133-0.039-0.203-0.031
			c-0.088-0.077-0.168-0.022-0.249,0.012c0.011,0.02,0.032,0.04,0.03,0.055c-0.014,0.087,0.047,0.148,0.075,0.22
			c0.019,0.048,0.074,0.082,0.089,0.129c0.034,0.106,0.103,0.193,0.16,0.283c0.067,0.107,0.115,0.213,0.109,0.338
			c-0.003,0.063,0.018,0.11,0.068,0.157c0-0.073-0.006-0.14,0.001-0.205c0.014-0.124-0.04-0.252,0.029-0.371
			c-0.048-0.038-0.009-0.131-0.078-0.146c-0.084-0.019-0.046-0.063-0.044-0.106c0.023,0,0.04,0,0.057,0
			c0.125,0.003,0.166,0.04,0.13,0.159c-0.024,0.081-0.026,0.158-0.028,0.238c0,0.017,0.007,0.04-0.001,0.049
			c-0.059,0.067-0.025,0.147-0.031,0.221c-0.006,0.077-0.004,0.155,0,0.233c0.001,0.029,0.015,0.063,0.035,0.083
			c0.016,0.015,0.05,0.01,0.075,0.017C-282.757-31.684-282.688-31.665-282.605-31.642z M-280.513-33.791
			c0.008,0.008,0.016,0.016,0.023,0.024c0.015-0.004,0.031-0.005,0.043-0.013c0.125-0.073,0.248-0.151,0.375-0.222
			c0.203-0.113,0.408-0.221,0.611-0.334c0.125-0.07,0.153-0.125,0.155-0.264c0.001-0.157-0.056-0.311-0.034-0.469
			c0.004-0.027,0.006-0.057-0.001-0.083c-0.007-0.029-0.024-0.056-0.04-0.089c-0.084,0.096-0.171,0.178-0.239,0.273
			c-0.106,0.15-0.243,0.274-0.357,0.417c-0.067,0.084-0.074,0.079-0.03,0.191C-280.177-34.169-280.345-33.98-280.513-33.791z
			 M-283.601-32.951c-0.082,0.074-0.059,0.143-0.036,0.209c0.016,0.048,0.062,0.093,0.062,0.139
			c0.001,0.119,0.075,0.204,0.123,0.299c0.069,0.138,0.156,0.266,0.24,0.405c0.032-0.047,0.067-0.093,0.096-0.144
			c0.012-0.021,0.019-0.055,0.01-0.077c-0.035-0.085-0.072-0.17-0.116-0.25c-0.068-0.122-0.155-0.234-0.21-0.361
			C-283.473-32.819-283.536-32.876-283.601-32.951z M-283.806-31.875c0.17,0.03,0.221-0.102,0.305-0.187
			c-0.084-0.151-0.167-0.297-0.252-0.45C-283.829-32.298-283.799-32.091-283.806-31.875z M-284.345-30.34
			c0.025-0.146-0.012-0.262-0.085-0.375c-0.056-0.086-0.095-0.182-0.144-0.273c-0.01-0.019-0.031-0.032-0.046-0.047
			c-0.012-0.012-0.024-0.024-0.044-0.044c-0.004,0.031-0.01,0.042-0.007,0.052c0.056,0.225,0.149,0.438,0.23,0.654
			C-284.417-30.312-284.383-30.345-284.345-30.34z M-283.7-31.6c0,0.107,0,0.2,0,0.294c0.073-0.033,0.073-0.033,0.155,0.06
			c-0.011,0.019-0.101-0.001-0.029,0.059c-0.048,0.021,0.01,0.068-0.013,0.078c-0.021,0.01-0.057-0.005-0.084-0.017
			c-0.009-0.003-0.01-0.026-0.015-0.04c-0.007,0.002-0.014,0.005-0.02,0.007c0.002,0.03,0.004,0.06,0.006,0.089
			c0.039,0,0.068-0.007,0.093,0.001c0.078,0.025,0.062-0.058,0.097-0.08c-0.043-0.045,0.008-0.077,0.016-0.115
			c0.004-0.025,0.02-0.049,0.021-0.073c0.003-0.087,0.001-0.174,0.001-0.263C-283.554-31.6-283.624-31.6-283.7-31.6z
			 M-287.37-29.793c0-0.042,0.008-0.072-0.001-0.094c-0.052-0.114-0.027-0.233-0.031-0.351c-0.003-0.098-0.001-0.196-0.001-0.29
			c-0.042-0.016-0.069-0.026-0.104-0.04c0.015,0.049,0.043,0.101,0.031,0.113c-0.038,0.04-0.028,0.082-0.025,0.123
			c0.004,0.057-0.042,0.114-0.002,0.171c-0.062,0.064-0.021,0.145-0.033,0.217c-0.008,0.05,0.014,0.083,0.057,0.105
			C-287.454-29.824-287.424-29.814-287.37-29.793z M-281.336-33.031c0.018-0.014,0.026-0.025,0.033-0.024
			c0.038,0.005,0.087,0,0.11,0.022c0.036,0.034,0.052,0.023,0.073-0.006c0.017-0.025,0.04-0.052,0.045-0.08
			c0.007-0.039-0.04-0.078,0-0.123c0.008-0.009-0.016-0.045-0.024-0.069c-0.043-0.123-0.042-0.123-0.181-0.11
			c0.015,0.025,0.038,0.047,0.036,0.067c-0.003,0.028-0.021,0.058-0.04,0.079C-281.344-33.209-281.345-33.131-281.336-33.031z
			 M-287.537-29.81c0,0.137,0,0.254,0,0.37c0,0.017,0,0.033,0,0.05c0.002,0.097,0.015,0.112,0.109,0.119
			c0.016,0.001,0.032-0.002,0.057-0.004c0-0.067,0-0.132,0-0.198c0-0.072,0.018-0.152-0.008-0.213
			C-287.399-29.736-287.473-29.763-287.537-29.81z M-282.472-30.557c-0.011-0.006-0.021-0.011-0.031-0.017
			c-0.012,0.038-0.03,0.076-0.035,0.115c-0.017,0.146-0.054,0.287-0.087,0.43c-0.02,0.083-0.077,0.166-0.032,0.264
			c0.02-0.025,0.047-0.044,0.049-0.066c0.004-0.042,0.03-0.038,0.055-0.042c-0.002-0.011-0.001-0.026-0.008-0.035
			c-0.025-0.029-0.011-0.051,0.013-0.069c0.024-0.018,0.062-0.027,0.073-0.05c0.013-0.027,0.003-0.065,0.003-0.099
			C-282.472-30.27-282.472-30.414-282.472-30.557z M-282.722-29.953c0.016-0.077,0.03-0.132,0.038-0.189
			c0.007-0.059,0.02-0.12,0.01-0.177c-0.012-0.07,0.031-0.123,0.039-0.186c0.008-0.054-0.088-0.1,0.009-0.159
			c-0.059,0-0.1,0-0.141,0C-282.783-30.43-282.772-30.204-282.722-29.953z M-277.788-32.046c-0.055,0.058-0.103,0.11-0.153,0.159
			c-0.041,0.041-0.048,0.079-0.009,0.125c0.014,0.017,0.019,0.042,0.024,0.053c0.073-0.072,0.141-0.139,0.214-0.212
			C-277.73-31.95-277.757-31.994-277.788-32.046z M-286.556-31.182c0.023,0.06,0.025,0.103,0.048,0.122
			c0.086,0.071,0.139,0.165,0.157,0.267c0.015,0.082,0.089,0.128,0.091,0.214c0,0.024,0.052,0.047,0.08,0.071
			c-0.009-0.063-0.041-0.105-0.057-0.153c-0.052-0.161-0.128-0.312-0.196-0.467C-286.458-31.185-286.488-31.161-286.556-31.182z
			 M-284.301-28.865c0,0.104,0,0.195,0,0.29c0.02,0.002,0.035,0.003,0.05,0.005c0.04,0.004,0.073-0.002,0.1-0.037
			c0.031-0.04-0.007-0.054-0.019-0.081c-0.01-0.022,0-0.053-0.002-0.081C-284.178-28.852-284.188-28.859-284.301-28.865z
			 M-284.658-28.686c0.031-0.001,0.058-0.005,0.085-0.003c0.055,0.004,0.11,0.018,0.164,0.015c0.022-0.001,0.05-0.031,0.063-0.054
			c0.01-0.017-0.056-0.078-0.079-0.076c-0.026,0.002-0.056,0.002-0.076,0.016c-0.026,0.018-0.044,0.023-0.07,0
			c-0.042-0.037-0.084-0.027-0.112,0.014C-284.71-28.734-284.664-28.706-284.658-28.686z M-285.638-30.523
			c0-0.04,0.007-0.063-0.001-0.08c-0.055-0.115-0.106-0.23-0.137-0.354c-0.001-0.006-0.019-0.015-0.026-0.012
			c-0.013,0.004-0.032,0.013-0.034,0.023c-0.005,0.026-0.012,0.061,0,0.081C-285.772-30.758-285.754-30.625-285.638-30.523z
			 M-277.964-31.935c0.117-0.113,0.12-0.132,0.04-0.232c-0.039,0.038-0.078,0.077-0.114,0.113
			C-278.014-32.015-277.989-31.975-277.964-31.935z M-276.957-32.361c0.021-0.033,0.05-0.059,0.045-0.076
			c-0.007-0.028-0.037-0.049-0.056-0.075c-0.015-0.021-0.027-0.043-0.041-0.064c-0.015-0.023-0.027-0.051-0.078-0.055
			C-277.041-32.538-277.002-32.457-276.957-32.361z M-287.502-29.042c0.001,0.013,0.002,0.026,0.004,0.039
			c0.026,0,0.052-0.005,0.077,0.001c0.025,0.006,0.048,0.023,0.087,0.042c-0.004-0.051-0.007-0.081-0.01-0.122
			C-287.405-29.067-287.453-29.055-287.502-29.042z M-283.354-32.009c-0.044,0.063,0.004,0.098,0.014,0.141
			c0.007,0.028-0.009,0.081,0.042,0.063c0.068-0.024,0.008-0.053-0.006-0.082C-283.323-31.923-283.335-31.961-283.354-32.009z"/>
	</g>
	<g display="inline">
		<path fill="#134494" stroke="#FFFFFF" stroke-width="0.5" stroke-miterlimit="10" d="M-258.857-9.355
			c0,0.661-0.54,1.199-1.205,1.199h-11.495c-0.665,0-1.205-0.538-1.205-1.199v-11.433c0-0.661,0.54-1.198,1.205-1.198h11.495
			c0.665,0,1.205,0.537,1.205,1.198V-9.355z"/>
		<path fill-rule="evenodd" clip-rule="evenodd" fill="#FFFFFF" d="M-267.833-21.29c0.239,0.154,0.354,0.408,0.502,0.634
			c0.074,0.114,0.156,0.225,0.229,0.339c0.106,0.167,0.204,0.341,0.314,0.507c0.174,0.261,0.355,0.517,0.533,0.774
			c0.079,0.117,0.157,0.233,0.229,0.341c-0.092,0.158-0.327,0.153-0.362,0.393c0.162-0.102,0.296-0.188,0.441-0.278
			c0.07,0.064,0.135,0.125,0.222,0.208c-0.777,0.503-1.537,1.003-2.261,1.551c0.009,0.013,0.018,0.026,0.026,0.039
			c0.76-0.503,1.521-1.006,2.283-1.509c0.336,0.352,0.654,0.684,0.982,1.025c-0.633,0.442-1.264,0.882-1.895,1.322
			c0.011,0.02,0.021,0.039,0.032,0.058c0.051-0.026,0.106-0.047,0.154-0.08c0.537-0.367,1.072-0.735,1.609-1.101
			c0.046-0.032,0.098-0.056,0.159-0.09c0.014,0.046,0.022,0.079,0.029,0.105c0.145,0.047,0.286,0.085,0.42,0.141
			c0.146,0.06,0.209,0.228,0.131,0.369c-0.078,0.14-0.178,0.268-0.275,0.395c-0.128,0.169-0.307,0.305-0.342,0.533
			c-0.051,0.332,0.037,0.63,0.221,0.903c0.033,0.05,0.107,0.072,0.173,0.114c0.009,0.105,0.071,0.167,0.181,0.227
			c0.123,0.067,0.199,0.213,0.312,0.307c0.535,0.452,1.082,0.891,1.615,1.346c0.553,0.473,1.037,1.011,1.442,1.615
			c0.223,0.331,0.434,0.671,0.642,1.012c0.068,0.114,0.109,0.241,0.164,0.363c-0.015,0.181-0.029,0.361-0.045,0.542
			c-0.19-0.016-0.382-0.031-0.573-0.046c-0.599-0.33-1.148-0.727-1.665-1.173c-0.419-0.362-0.82-0.739-1.158-1.18
			c-0.375-0.49-0.743-0.986-1.115-1.48c-0.156-0.204-0.306-0.413-0.472-0.608c-0.122-0.145-0.247-0.299-0.404-0.397
			c-0.147-0.093-0.334-0.127-0.508-0.168c-0.49-0.114-0.953-0.011-1.399,0.196c-0.021,0.01-0.044,0.018-0.067,0.026
			c-0.306,0.11-0.339,0.083-0.547-0.173c-0.203-0.25-0.445-0.468-0.661-0.709c-0.083-0.092-0.137-0.209-0.204-0.315
			c-0.011-0.02-0.016-0.046-0.03-0.063c-0.335-0.388-0.639-0.8-1.037-1.135c-0.319-0.268-0.589-0.59-0.881-0.887
			c-0.254-0.258-0.512-0.516-0.765-0.775c-0.046-0.047-0.083-0.104-0.125-0.155c-0.053-0.066-0.096-0.149-0.163-0.196
			c-0.172-0.121-0.244-0.237-0.333-0.432c0.002-0.029,0.158-0.134,0.212-0.167c0.781-0.588,1.584-1.156,2.511-1.592
			c0.019-0.006,0.078-0.014,0.124-0.042c0.188-0.118,0.37-0.248,0.559-0.365c0.095-0.06,0.203-0.101,0.305-0.15
			c0.005,0.01,0.012,0.021,0.018,0.032c0.038-0.04,0.13-0.093,0.138-0.079c0.067-0.027,0.136-0.056,0.203-0.083
			C-267.948-21.3-267.891-21.294-267.833-21.29z M-261.358-11.125c-0.21-0.017-0.346,0.077-0.3,0.233
			c0.049,0.165,0.128,0.33,0.233,0.461c0.08,0.1,0.215,0.181,0.37,0.113c0.136-0.06,0.2-0.163,0.188-0.314
			C-260.881-10.824-261.164-11.11-261.358-11.125z M-268.174-15.087c-0.227-0.292-0.479-0.616-0.73-0.939
			c-0.016,0.013-0.032,0.027-0.047,0.041C-268.682-15.677-268.442-15.343-268.174-15.087z"/>
	</g>
	<g>
		<path display="inline" fill="#134494" stroke="#FFFFFF" stroke-width="0.5" stroke-miterlimit="10" d="M-313.661-35.945
			c0,0.665-0.539,1.204-1.204,1.204h-11.49c-0.665,0-1.204-0.539-1.204-1.204v-11.49c0-0.665,0.539-1.204,1.204-1.204h11.49
			c0.665,0,1.204,0.539,1.204,1.204V-35.945z"/>
		<path display="inline" fill-rule="evenodd" clip-rule="evenodd" fill="#FFFFFF" d="M-315.741-42.403
			c0.094,0.104,0.134,0.238,0.197,0.358c0.152,0.287,0.291,0.579,0.436,0.869c0.013,0.025,0.031,0.048,0.067,0.064
			c-0.004-0.018-0.005-0.038-0.014-0.054c-0.058-0.115-0.119-0.229-0.175-0.344c-0.012-0.025-0.01-0.058,0.006-0.092
			c0.004,0.011,0.01,0.023,0.015,0.035c0.033,0.097,0.089,0.153,0.202,0.131c0.049-0.01,0.088,0.014,0.132,0.044
			c0.094,0.065,0.182,0.13,0.232,0.236c0.005,0.01,0.014,0.021,0.022,0.023c0.118,0.039,0.136,0.176,0.244,0.236
			c0,0.03-0.002,0.063,0,0.094c0.008,0.094-0.006,0.171-0.117,0.201c-0.032,0.009-0.051,0.047-0.052,0.093
			c-0.002,0.074-0.021,0.144-0.109,0.172c-0.024,0.008-0.039,0.046-0.055,0.072c-0.076,0.118-0.109,0.255-0.169,0.38
			c-0.085,0.176-0.125,0.375-0.261,0.525c-0.029,0.114-0.144,0.13-0.222,0.182c-0.084,0.055-0.188,0.058-0.291,0.016
			c-0.048-0.019-0.118-0.028-0.16-0.006c-0.074,0.038-0.149,0.015-0.221,0.03c-0.118,0.026-0.243,0.011-0.357,0.063
			c-0.009,0.004-0.021,0.004-0.032,0.002c-0.154-0.025-0.3,0.044-0.453,0.036c-0.067-0.003-0.135,0.021-0.203,0.03
			c-0.063,0.009-0.123,0.001-0.188,0.027c-0.075,0.03-0.171-0.008-0.25,0.04c-0.114-0.034-0.211,0.036-0.303,0.074
			c-0.149,0.062-0.263,0.002-0.364-0.071c-0.186-0.134-0.297-0.327-0.359-0.548c-0.038-0.134-0.07-0.273-0.138-0.392
			c-0.046-0.081-0.062-0.164-0.092-0.246c-0.03-0.083-0.044-0.171-0.069-0.255c-0.043-0.144-0.064-0.293-0.12-0.433
			c-0.014-0.034-0.012-0.074-0.019-0.117c0.035-0.006,0.066-0.012,0.113-0.021c-0.016-0.05-0.02-0.105-0.047-0.143
			c-0.035-0.047-0.023-0.09-0.022-0.139c0.048-0.023,0.102-0.004,0.153-0.038c0.057-0.036,0.104,0,0.143,0.08
			c0.029,0.06,0.051,0.124,0.083,0.182c0.06,0.109,0.125,0.215,0.195,0.334c0.107,0,0.222,0.006,0.337-0.001
			c0.105-0.007,0.21-0.028,0.336-0.046c-0.09-0.066-0.081-0.163-0.117-0.242c-0.034-0.074-0.046-0.158-0.07-0.238
			c-0.009-0.029-0.024-0.056-0.042-0.095c0.082-0.022,0.158-0.012,0.232-0.009c0.026,0,0.063,0.026,0.076,0.05
			c0.083,0.165,0.161,0.333,0.243,0.503c0.202,0.051,0.404-0.042,0.625-0.021c-0.014-0.042-0.056-0.058-0.064-0.086
			c-0.01-0.036,0.001-0.078-0.003-0.116c-0.013-0.109-0.044-0.217-0.077-0.318c-0.025-0.078,0.022-0.081,0.049-0.078
			c0.066,0.006,0.139,0.017,0.193,0.051c0.037,0.023,0.049,0.087,0.069,0.135c0.019,0.047,0.033,0.097,0.052,0.151
			c0.04-0.02,0.077-0.037,0.12-0.058c-0.017-0.058-0.063-0.111-0.027-0.179c0.029-0.054,0.049-0.112,0.068-0.156
			c0.03,0.002,0.064,0.016,0.083,0.004c0.066-0.042,0.126-0.092,0.201-0.149c-0.003-0.005-0.017-0.025-0.024-0.048
			c-0.004-0.013-0.004-0.032,0.002-0.044c0.042-0.074,0.038-0.086-0.033-0.111c-0.016-0.005-0.041-0.024-0.04-0.034
			c0.007-0.047-0.026-0.068-0.049-0.098c-0.014-0.02-0.021-0.05-0.018-0.075c0.003-0.027,0.061-0.063-0.021-0.063
			c-0.004,0-0.015-0.028-0.013-0.042c0.006-0.063-0.049-0.105-0.082-0.112c-0.094-0.021-0.172-0.068-0.257-0.105
			c-0.057-0.024-0.117-0.029-0.142-0.098c-0.005-0.013-0.036-0.016-0.055-0.024c-0.063-0.028-0.137-0.091-0.164-0.143
			c-0.068-0.127-0.136-0.255-0.2-0.384c-0.048-0.098-0.102-0.191-0.15-0.288c-0.049-0.097-0.101-0.192-0.15-0.288
			c-0.111-0.215-0.22-0.431-0.334-0.645c-0.035-0.064-0.082-0.122-0.128-0.18c-0.027-0.034-0.075-0.031-0.112,0.004
			c-0.061,0.058-0.117,0.119-0.177,0.176c-0.274,0.264-0.542,0.532-0.825,0.787c-0.101,0.09-0.207,0.176-0.301,0.274
			c-0.177,0.184-0.319,0.394-0.449,0.613c-0.098,0.165-0.174,0.339-0.246,0.515c-0.041,0.101-0.095,0.198-0.092,0.312
			c0,0.005,0.002,0.012,0,0.017c-0.059,0.14-0.079,0.29-0.109,0.438c-0.006,0.031-0.019,0.06-0.023,0.09
			c-0.004,0.021-0.002,0.044,0,0.066c0.022,0.308-0.053,0.611-0.034,0.919c-0.042,0.13-0.053,0.277-0.198,0.349
			c-0.024,0.012-0.052,0.035-0.058,0.058c-0.029,0.111-0.131,0.103-0.207,0.142c-0.029,0.015-0.034-0.008-0.048-0.009
			c-0.029-0.002-0.067-0.003-0.088,0.013c-0.056,0.041-0.093,0.106-0.164,0.128c-0.004,0.001-0.006,0.025-0.001,0.03
			c0.006,0.006,0.021,0.005,0.032,0.004c0.004,0,0.007-0.009,0.012-0.011c0.068-0.03,0.082,0.091,0.134,0.058
			c0.053-0.033,0.109-0.049,0.146-0.014c0.043,0.04,0.077,0.017,0.117,0.021c0.105,0.013,0.214,0.017,0.314,0.044
			c0.049,0.013,0.095,0.013,0.142,0.017c0.049,0.005,0.095-0.001,0.133,0.046c0.014,0.018,0.073,0.028,0.085,0.017
			c0.067-0.066,0.101,0.013,0.149,0.025c-0.003,0.066,0.055,0.067,0.094,0.092c0.111,0.073,0.11,0.075,0.172,0.208
			c0.015,0.033,0.019,0.073,0.04,0.1c0.054,0.068,0.065,0.143,0.062,0.226c-0.004,0.071-0.001,0.142-0.001,0.227
			c0.125-0.017,0.24-0.032,0.362-0.048c0-0.022,0-0.049,0-0.083c0.025-0.003,0.047-0.011,0.065-0.006
			c0.16,0.043,0.159,0.04,0.356,0.001c0.105-0.021,0.213-0.029,0.319-0.033c0.084-0.003,0.129,0.06,0.083,0.124
			c-0.058,0.079-0.051,0.161-0.052,0.246c-0.001,0.072,0,0.145,0,0.217c0,0.195,0,0.195,0.102,0.378
			c-0.024,0.067-0.09,0.1-0.146,0.097c-0.123-0.008-0.223,0.06-0.337,0.08c-0.119,0.021-0.242,0.05-0.362,0.087
			c-0.178,0.055-0.369,0.061-0.543,0.137c-0.141-0.016-0.266,0.064-0.405,0.071c-0.096,0.005-0.187,0.064-0.289,0.062
			c-0.052,0.075-0.141,0.01-0.21,0.061c-0.052,0.039-0.143,0.023-0.215,0.04c-0.167,0.039-0.332,0.088-0.5,0.12
			c-0.169,0.032-0.333,0.083-0.502,0.118c-0.136,0.028-0.277,0.041-0.412,0.089c-0.07,0.025-0.156,0.015-0.234,0.036
			c-0.066,0.018-0.103-0.015-0.11-0.082c-0.016-0.131-0.069-0.255-0.068-0.389c0.002-0.133-0.004-0.267,0.002-0.399
			c0.004-0.073,0.009-0.153,0.043-0.214c0.034-0.063-0.015-0.068-0.037-0.077c-0.038-0.015-0.089,0.016-0.125-0.039
			c-0.031,0.089-0.061,0.174-0.09,0.26c-0.037,0.108-0.053,0.113-0.159,0.233c-0.048,0.055-0.087,0.117-0.157,0.141
			c-0.043,0.015-0.098-0.009-0.135,0.036c-0.201-0.02-0.387,0.086-0.589,0.068c-0.069-0.006-0.135-0.014-0.204-0.032
			c-0.165-0.043-0.32-0.123-0.494-0.136c-0.084-0.07-0.198-0.06-0.291-0.103c-0.101-0.046-0.21-0.049-0.313-0.09
			c-0.095-0.038-0.194-0.075-0.293-0.094c-0.145-0.027-0.275-0.093-0.419-0.121c-0.119-0.023-0.238-0.066-0.357-0.101
			c-0.129-0.037-0.209-0.159-0.313-0.241c-0.01-0.008-0.007-0.03-0.013-0.044c-0.069-0.166-0.136-0.33-0.124-0.516
			c0.008-0.118-0.011-0.238,0.034-0.353c0.017-0.043,0.017-0.104,0.047-0.128c0.065-0.05,0.037-0.148,0.115-0.189
			c0.069-0.036,0.147,0.005,0.206-0.023c0.081-0.04,0.159-0.021,0.238-0.03c0.084-0.009,0.168-0.027,0.252-0.031
			c0.052-0.002,0.103-0.009,0.158,0.022c0.034,0.02,0.101-0.039,0.151,0.009c0.157-0.015,0.305,0.044,0.454,0.073
			c0.147,0.029,0.301,0.032,0.444,0.09c0.048,0.02,0.12,0.022,0.165-0.042c0.019-0.027,0.041-0.047,0.037-0.085
			c-0.004-0.043-0.001-0.086-0.001-0.137c-0.069,0-0.13,0.003-0.19,0c-0.157-0.008-0.313,0.017-0.47-0.028
			c-0.073-0.021-0.167-0.027-0.223,0.061c-0.003,0.004-0.042-0.005-0.042-0.009c-0.004-0.065-0.05-0.056-0.093-0.056
			c-0.105,0-0.211,0-0.316,0c-0.076,0-0.137-0.013-0.178-0.092c-0.038-0.071-0.122-0.055-0.176-0.03
			c-0.053,0.024-0.081,0.009-0.129-0.004c-0.069-0.02-0.138-0.048-0.217-0.043c-0.12,0.006-0.228-0.113-0.231-0.236
			c-0.003-0.117,0-0.233,0-0.35c0-0.033,0.01-0.077-0.006-0.096c-0.084-0.099-0.057-0.215-0.06-0.326
			c-0.003-0.111,0.003-0.222-0.001-0.333c-0.005-0.13,0.05-0.253,0.037-0.386c-0.012-0.126-0.022-0.259,0.003-0.381
			c0.022-0.108,0.021-0.214,0.029-0.32c0.004-0.058,0.023-0.113,0.031-0.17c0.007-0.052,0.011-0.101,0.03-0.154
			c0.09-0.262,0.344-0.465,0.596-0.442c0.021,0.001,0.043,0,0.074,0c-0.055-0.074-0.1-0.143-0.154-0.203
			c-0.054-0.061-0.072-0.138-0.113-0.203c-0.077-0.123-0.091-0.263-0.132-0.396c-0.047-0.15-0.043-0.311-0.099-0.458
			c0.023-0.115-0.036-0.223-0.035-0.336c0-0.051,0.021-0.106-0.028-0.156c-0.017-0.017,0-0.072,0.01-0.108
			c0.01-0.04,0.032-0.076,0.045-0.114c0.067-0.184,0.125-0.213,0.32-0.163c0.026,0.006,0.054,0.005,0.081,0.005
			c0.203,0,0.386,0.085,0.578,0.135c0.023,0.006,0.042,0.032,0.063,0.049c0.138,0.115,0.232,0.266,0.333,0.412
			c0.118,0.17,0.168,0.359,0.166,0.564c0,0.055,0.005,0.111-0.001,0.167c-0.012,0.113,0.032,0.198,0.114,0.27
			c0.013,0.011,0.024,0.023,0.027,0.027c0.16,0.015,0.314,0.013,0.459,0.05c0.082,0.021,0.161,0.011,0.237,0.029
			c0.118,0.028,0.241,0.031,0.355,0.068c0.053,0.017,0.095,0.068,0.134,0.098c0.043,0.147-0.062,0.224-0.125,0.323
			c0.052,0.025,0.129-0.021,0.158,0.059c-0.018,0.017-0.016,0.05-0.074,0.028c-0.072-0.027-0.161-0.006-0.27-0.006
			c0.04,0.029,0.06,0.048,0.083,0.062c0.048,0.027,0.075,0.064,0.104,0.112c0.101,0.163,0.19,0.332,0.267,0.507
			c0.008,0.019,0.03,0.032,0.048,0.049c0.024-0.138,0.061-0.273,0.048-0.414c-0.007-0.081,0.056-0.152,0.033-0.236
			c0.045-0.039,0.087-0.081,0.134-0.117c0.028-0.021,0.064-0.033,0.099-0.049c0-0.243,0-0.487,0-0.731
			c0-0.026-0.002-0.054-0.009-0.08c-0.027-0.1-0.028-0.1,0.077-0.153c-0.028-0.041-0.08-0.066-0.07-0.131
			c0.011-0.076-0.045-0.13-0.1-0.173c-0.086-0.069-0.178-0.132-0.267-0.198c0.02-0.056,0.032-0.106,0.096-0.13
			c0.086-0.033,0.109-0.027,0.14,0.06c0.036,0.102,0.074,0.204,0.134,0.294c0.026,0.038,0.064,0.068,0.099,0.104
			c0.055-0.09,0.114-0.164,0.149-0.248c0.058-0.14,0.186-0.145,0.298-0.159c0.094-0.012,0.192-0.011,0.292,0.012
			c0.093,0.02,0.179,0.057,0.265,0.088c0.12,0.044,0.204,0.143,0.263,0.261c0.073,0.146,0.107,0.301,0.138,0.46
			c0.027,0.141,0.019,0.28,0.031,0.42c0.009,0.105-0.04,0.2-0.037,0.303c0.003,0.1,0.006,0.2-0.001,0.299
			c-0.004,0.057-0.054,0.112-0.029,0.169c0.041,0.094,0.012,0.195,0.036,0.286c0.032,0.124,0.006,0.251,0.035,0.369
			c0.031,0.129,0.018,0.257,0.035,0.417c0.029-0.052,0.059-0.081,0.057-0.107c-0.014-0.23,0.059-0.456,0.036-0.686
			c0.062-0.277,0.001-0.56,0.041-0.835c0.027-0.192,0.014-0.38,0.025-0.57c0.002-0.037,0.006-0.072-0.027-0.106
			c-0.04-0.042-0.055-0.128-0.05-0.159c0.012-0.064,0.035-0.106,0.103-0.142c0.139-0.072,0.265-0.166,0.396-0.251
			c0.031-0.021,0.06-0.042,0.091-0.062c0.021-0.014,0.043-0.031,0.067-0.037c0.116-0.026,0.113-0.025,0.121-0.126
			c0.007-0.085,0.013-0.171,0.036-0.252c0.012-0.043,0.04-0.09,0.097-0.108c0.068-0.021,0.167-0.02,0.249,0.018
			c0.162-0.151,0.309-0.315,0.437-0.498c0.074-0.106,0.171-0.196,0.256-0.294c0.035-0.04,0.079-0.069,0.099-0.126
			c0.012-0.034,0.062-0.056,0.097-0.08c0.017-0.011,0.045-0.022,0.061-0.015c0.048,0.019,0.016,0.044,0.002,0.071
			c-0.005,0.009,0.006,0.036,0.016,0.041c0.01,0.005,0.035,0,0.043-0.009c0.093-0.107,0.208-0.191,0.288-0.313
			c0.08-0.122,0.193-0.221,0.29-0.331c0.061-0.068,0.118-0.14,0.177-0.209c0.005-0.007,0.014-0.021,0.012-0.023
			c-0.057-0.06-0.005-0.139-0.035-0.202c-0.041-0.083-0.028-0.163-0.006-0.248c0.027-0.104,0.127-0.123,0.19-0.184
			c0.039-0.037,0.12-0.009,0.157,0.04c0.03,0.039,0.101,0.075,0.137,0.061c0.039-0.015,0.065-0.013,0.104,0.01
			c0.147,0.087,0.284,0.187,0.405,0.308c0.053,0.052,0.094,0.129,0.19,0.104c0.043,0.046,0.098,0.086,0.127,0.14
			c0.035,0.062,0.057,0.134,0.067,0.205c0.009,0.069,0.031,0.131,0.058,0.193c0.053,0.124,0.057,0.133,0.049,0.275
			c0.028-0.028,0.042-0.046,0.061-0.06c0.015-0.011,0.035-0.016,0.073-0.033c-0.017,0.125,0.015,0.222,0.059,0.32
			c0.039,0.089,0.061,0.19,0.067,0.288c0.006,0.092,0.038,0.176,0.074,0.253c0.08,0.172,0.166,0.343,0.249,0.513
			c0.102,0.208,0.219,0.408,0.316,0.619c0.017,0.038,0.06,0.064,0.091,0.095c0.023,0.024,0.051,0.044,0.07,0.071
			c0.083,0.12,0.076,0.181-0.03,0.313c0.02,0.086,0.089,0.148,0.104,0.241c0.019,0.114,0.03,0.112-0.061,0.2
			c-0.004-0.018-0.003-0.036-0.011-0.047c-0.008-0.01-0.026-0.021-0.038-0.019c-0.011,0.001-0.023,0.019-0.026,0.031
			c-0.004,0.021-0.001,0.044-0.001,0.067c-0.006,0-0.012,0.001-0.017,0c-0.023-0.01-0.053-0.035-0.067-0.028
			c-0.03,0.016-0.01,0.04,0.002,0.067c0.024,0.052-0.051,0.01-0.05,0.033c0.063,0.136,0.125,0.259,0.18,0.386
			c0.127,0.292,0.278,0.572,0.417,0.859c0.011,0.024,0.009,0.062,0.043,0.048c0.059-0.024-0.032-0.042-0.008-0.069
			c0.006-0.008,0.01-0.018,0.014-0.026c0.058,0.02,0.045,0.111,0.121,0.126c-0.014-0.056-0.011-0.123-0.039-0.142
			c-0.067-0.045-0.054-0.125-0.1-0.179c-0.042-0.049-0.057-0.12-0.085-0.18c-0.062-0.129-0.121-0.261-0.19-0.386
			C-315.742-42.333-315.736-42.367-315.741-42.403z M-321.605-42.642c0-0.212-0.001-0.417,0-0.622
			c0.001-0.193-0.062-0.37-0.133-0.545c-0.058-0.144-0.172-0.198-0.313-0.229c-0.068-0.015-0.133-0.039-0.203-0.031
			c-0.088-0.077-0.168-0.022-0.249,0.012c0.011,0.02,0.032,0.04,0.03,0.055c-0.014,0.087,0.047,0.148,0.075,0.22
			c0.019,0.048,0.074,0.082,0.089,0.129c0.034,0.106,0.103,0.193,0.16,0.283c0.067,0.107,0.115,0.213,0.109,0.338
			c-0.003,0.063,0.018,0.11,0.068,0.157c0-0.073-0.006-0.14,0.001-0.205c0.014-0.124-0.04-0.252,0.029-0.371
			c-0.048-0.038-0.009-0.131-0.078-0.146c-0.084-0.019-0.046-0.063-0.044-0.106c0.023,0,0.04,0,0.057,0
			c0.125,0.003,0.166,0.04,0.13,0.159c-0.024,0.081-0.026,0.158-0.028,0.238c0,0.017,0.007,0.04-0.001,0.049
			c-0.059,0.067-0.025,0.147-0.031,0.221c-0.006,0.077-0.004,0.155,0,0.233c0.001,0.029,0.015,0.063,0.035,0.083
			c0.016,0.015,0.05,0.01,0.075,0.017C-321.757-42.684-321.688-42.665-321.605-42.642z M-319.513-44.791
			c0.008,0.008,0.016,0.016,0.023,0.024c0.015-0.004,0.031-0.005,0.043-0.013c0.125-0.073,0.248-0.151,0.375-0.222
			c0.203-0.113,0.408-0.221,0.611-0.334c0.125-0.07,0.153-0.125,0.155-0.264c0.001-0.157-0.056-0.311-0.034-0.469
			c0.004-0.027,0.006-0.057-0.001-0.083c-0.007-0.029-0.024-0.056-0.04-0.089c-0.084,0.096-0.171,0.178-0.239,0.273
			c-0.106,0.15-0.243,0.274-0.357,0.417c-0.067,0.084-0.074,0.079-0.03,0.191C-319.177-45.169-319.345-44.98-319.513-44.791z
			 M-322.601-43.951c-0.082,0.074-0.059,0.143-0.036,0.209c0.016,0.048,0.062,0.093,0.062,0.139
			c0.001,0.119,0.075,0.204,0.123,0.299c0.069,0.138,0.156,0.266,0.24,0.405c0.032-0.047,0.067-0.093,0.096-0.144
			c0.012-0.021,0.019-0.055,0.01-0.077c-0.035-0.085-0.072-0.17-0.116-0.25c-0.068-0.122-0.155-0.234-0.21-0.361
			C-322.473-43.819-322.536-43.876-322.601-43.951z M-322.806-42.875c0.17,0.03,0.221-0.102,0.305-0.187
			c-0.084-0.151-0.167-0.297-0.252-0.45C-322.829-43.298-322.799-43.091-322.806-42.875z M-323.345-41.34
			c0.025-0.146-0.012-0.262-0.085-0.375c-0.056-0.086-0.095-0.182-0.144-0.273c-0.01-0.019-0.031-0.032-0.046-0.047
			c-0.012-0.012-0.024-0.024-0.044-0.044c-0.004,0.031-0.01,0.042-0.007,0.052c0.056,0.225,0.149,0.438,0.23,0.654
			C-323.417-41.312-323.383-41.345-323.345-41.34z M-322.7-42.6c0,0.107,0,0.2,0,0.294c0.073-0.033,0.073-0.033,0.155,0.06
			c-0.011,0.019-0.101-0.001-0.029,0.059c-0.048,0.021,0.01,0.068-0.013,0.078c-0.021,0.01-0.057-0.005-0.084-0.017
			c-0.009-0.003-0.01-0.026-0.015-0.04c-0.007,0.002-0.014,0.005-0.02,0.007c0.002,0.03,0.004,0.06,0.006,0.089
			c0.039,0,0.068-0.007,0.093,0.001c0.078,0.025,0.062-0.058,0.097-0.08c-0.043-0.045,0.008-0.077,0.016-0.115
			c0.004-0.025,0.02-0.049,0.021-0.073c0.003-0.087,0.001-0.174,0.001-0.263C-322.554-42.6-322.624-42.6-322.7-42.6z
			 M-326.37-40.793c0-0.042,0.008-0.072-0.001-0.094c-0.052-0.114-0.027-0.233-0.031-0.351c-0.003-0.098-0.001-0.196-0.001-0.29
			c-0.042-0.016-0.069-0.026-0.104-0.04c0.015,0.049,0.043,0.101,0.031,0.113c-0.038,0.04-0.028,0.082-0.025,0.123
			c0.004,0.057-0.042,0.114-0.002,0.171c-0.062,0.064-0.021,0.145-0.033,0.217c-0.008,0.05,0.014,0.083,0.057,0.105
			C-326.454-40.824-326.424-40.814-326.37-40.793z M-320.336-44.031c0.018-0.014,0.026-0.025,0.033-0.024
			c0.038,0.005,0.087,0,0.11,0.022c0.036,0.034,0.052,0.023,0.073-0.006c0.017-0.025,0.04-0.052,0.045-0.08
			c0.007-0.039-0.04-0.078,0-0.123c0.008-0.009-0.016-0.045-0.024-0.069c-0.043-0.123-0.042-0.123-0.181-0.11
			c0.015,0.025,0.038,0.047,0.036,0.067c-0.003,0.028-0.021,0.058-0.04,0.079C-320.344-44.209-320.345-44.131-320.336-44.031z
			 M-326.537-40.81c0,0.137,0,0.254,0,0.37c0,0.017,0,0.033,0,0.05c0.002,0.097,0.015,0.112,0.109,0.119
			c0.016,0.001,0.032-0.002,0.057-0.004c0-0.067,0-0.132,0-0.198c0-0.072,0.018-0.152-0.008-0.213
			C-326.399-40.736-326.473-40.763-326.537-40.81z M-321.472-41.557c-0.011-0.006-0.021-0.011-0.031-0.017
			c-0.012,0.038-0.03,0.076-0.035,0.115c-0.017,0.146-0.054,0.287-0.087,0.43c-0.02,0.083-0.077,0.166-0.032,0.264
			c0.02-0.025,0.047-0.044,0.049-0.066c0.004-0.042,0.03-0.038,0.055-0.042c-0.002-0.011-0.001-0.026-0.008-0.035
			c-0.025-0.029-0.011-0.051,0.013-0.069c0.024-0.018,0.062-0.027,0.073-0.05c0.013-0.027,0.003-0.065,0.003-0.099
			C-321.472-41.27-321.472-41.414-321.472-41.557z M-321.722-40.953c0.016-0.077,0.03-0.132,0.038-0.189
			c0.007-0.059,0.02-0.12,0.01-0.177c-0.012-0.07,0.031-0.123,0.039-0.186c0.008-0.054-0.088-0.1,0.009-0.159
			c-0.059,0-0.1,0-0.141,0C-321.783-41.43-321.772-41.204-321.722-40.953z M-316.788-43.046c-0.055,0.058-0.103,0.11-0.153,0.159
			c-0.041,0.041-0.048,0.079-0.009,0.125c0.014,0.017,0.019,0.042,0.024,0.053c0.073-0.072,0.141-0.139,0.214-0.212
			C-316.73-42.95-316.757-42.994-316.788-43.046z M-325.556-42.182c0.023,0.06,0.025,0.103,0.048,0.122
			c0.086,0.071,0.139,0.165,0.157,0.267c0.015,0.082,0.089,0.128,0.091,0.214c0,0.024,0.052,0.047,0.08,0.071
			c-0.009-0.063-0.041-0.105-0.057-0.153c-0.052-0.161-0.128-0.312-0.196-0.467C-325.458-42.185-325.488-42.161-325.556-42.182z
			 M-323.301-39.865c0,0.104,0,0.195,0,0.29c0.02,0.002,0.035,0.003,0.05,0.005c0.04,0.004,0.073-0.002,0.1-0.037
			c0.031-0.04-0.007-0.054-0.019-0.081c-0.01-0.022,0-0.053-0.002-0.081C-323.178-39.852-323.188-39.859-323.301-39.865z
			 M-323.658-39.686c0.031-0.001,0.058-0.005,0.085-0.003c0.055,0.004,0.11,0.018,0.164,0.015c0.022-0.001,0.05-0.031,0.063-0.054
			c0.01-0.017-0.056-0.078-0.079-0.076c-0.026,0.002-0.056,0.002-0.076,0.016c-0.026,0.018-0.044,0.023-0.07,0
			c-0.042-0.037-0.084-0.027-0.112,0.014C-323.71-39.734-323.664-39.706-323.658-39.686z M-324.638-41.523
			c0-0.04,0.007-0.063-0.001-0.08c-0.055-0.115-0.106-0.23-0.137-0.354c-0.001-0.006-0.019-0.015-0.026-0.012
			c-0.013,0.004-0.032,0.013-0.034,0.023c-0.005,0.026-0.012,0.061,0,0.081C-324.772-41.758-324.754-41.625-324.638-41.523z
			 M-316.964-42.935c0.117-0.113,0.12-0.132,0.04-0.232c-0.039,0.038-0.078,0.077-0.114,0.113
			C-317.014-43.015-316.989-42.975-316.964-42.935z M-315.957-43.361c0.021-0.033,0.05-0.059,0.045-0.076
			c-0.007-0.028-0.037-0.049-0.056-0.075c-0.015-0.021-0.027-0.043-0.041-0.064c-0.015-0.023-0.027-0.051-0.078-0.055
			C-316.041-43.538-316.002-43.457-315.957-43.361z M-326.502-40.042c0.001,0.013,0.002,0.026,0.004,0.039
			c0.026,0,0.052-0.005,0.077,0.001c0.025,0.006,0.048,0.023,0.087,0.042c-0.004-0.051-0.007-0.081-0.01-0.122
			C-326.405-40.067-326.453-40.055-326.502-40.042z M-322.354-43.009c-0.044,0.063,0.004,0.098,0.014,0.141
			c0.007,0.028-0.009,0.081,0.042,0.063c0.068-0.024,0.008-0.053-0.006-0.082C-322.323-42.923-322.335-42.961-322.354-43.009z"/>
	</g>
</g>
<g id="_x31_Group">
	<path display="none" fill="#144691" d="M-257.348,5.601c0,1.453-1.176,2.629-2.629,2.629h-25.089c-1.453,0-2.629-1.176-2.629-2.629
		v-25.09c0-1.453,1.177-2.629,2.629-2.629h25.089c1.453,0,2.629,1.177,2.629,2.629V5.601z"/>
	<path fill-rule="evenodd" clip-rule="evenodd" fill="#FFFFFF" d="M31.978,24.586c-0.081,0.034-0.176,0.041-0.265,0.059
		c0.082-0.068,0.13-0.129,0.033-0.221c-0.019-0.02-0.021-0.055-0.025-0.084c-0.034-0.146-0.013-0.295-0.003-0.439
		c0.031-0.396,0.051-0.794,0.042-1.191c-0.004-0.078,0.003-0.172-0.055-0.234c-0.115-0.131-0.232-0.26-0.35-0.391
		c-0.057,0.033-0.112,0.068-0.166,0.098c-0.414,0.242-0.573,0.392-2.152,0.844c-0.945,0.271-2.908,0.436-2.908,0.436
		s1.289-0.391,1.989-0.605c0.696-0.215,1.825-0.563,2.657-1.15c0.147-0.105,0.252-0.186,0.344-0.26
		c-0.006-0.162-0.012-0.325-0.023-0.488c-0.027-0.393-0.052-0.788-0.059-1.183c-0.006-0.263-0.057-0.518-0.093-0.775
		c-0.035-0.264-0.101-0.522-0.146-0.785c-0.075-0.423-0.147-0.845-0.282-1.251c-0.101-0.301-0.177-0.618-0.3-0.916
		c-0.087-0.212-0.168-0.432-0.282-0.627c-0.217-0.378-0.406-0.778-0.69-1.114c-0.114-0.134-0.199-0.292-0.316-0.421
		c-0.09-0.096-0.2-0.173-0.278-0.284c-0.307-0.42-0.69-0.763-1.039-1.144c-0.108-0.117-0.235-0.221-0.358-0.328
		c-0.308-0.271-0.556-0.538-0.88-0.793l0,0c0-0.001,0.057-0.002,0.057-0.004v0.002c0,0.001-0.057,0.002-0.057,0.002l0,0
		c0.047,0.018,0.062,0.034,0.108,0.054c0.181,0.076,0.331,0.185,0.502,0.282c0.011,0.012,0.015,0.023,0.028,0.01
		c0.016-0.016-0.007-0.026-0.012-0.037c-0.473-0.538-1.041-0.949-1.635-1.328C24.48,9.75,23.514,9.42,22.5,9.236
		c-0.143-0.025-0.289-0.029-0.432-0.032c-0.391,0.159-0.737,0.382-1.344,0.552c-1.1,0.31-2.414,1.12-3.017,1.535
		c-0.588,0.414-2.231,1.832-2.231,1.832s1.969-2.358,2.744-2.975c0.836-0.673,1.33-0.941,1.738-1.081
		c-0.066-0.008-0.13-0.023-0.197-0.025c-0.676-0.022-1.329,0.104-1.975,0.306c-0.33,0.102-0.658,0.211-0.98,0.335
		c-0.667,0.255-1.259,0.65-1.833,1.071c-0.407,0.294-0.776,0.631-1.084,1.035c-0.028,0.037-0.053,0.113-0.129,0.046
		c-0.017-0.014-0.043,0.013-0.061,0.03c-0.331,0.301-0.668,0.593-0.991,0.903c-0.317,0.301-0.616,0.618-0.889,0.963
		c-0.139,0.175-0.283,0.349-0.413,0.534c-0.247,0.345-0.465,0.71-0.666,1.085c-0.067,0.124-0.146,0.246-0.162,0.394
		c-0.078,0.02-0.074,0.083-0.072,0.146c-0.023,0.053-0.049,0.109-0.076,0.161c-0.047-0.007-0.051,0.033-0.063,0.061
		c-0.082,0.192-0.162,0.383-0.231,0.583c-0.115,0.33-0.231,0.661-0.321,1.002c-0.052,0.201-0.114,0.4-0.171,0.602
		c-0.088,0.313-0.145,0.633-0.225,0.95c-0.084,0.34-0.162,0.684-0.217,1.034c-0.02,0.124-0.054,0.253-0.087,0.349
		c0.687,0.465,1.306,0.807,1.868,1.075c0.824,0.392,2.269,0.778,2.269,0.778s-2.117-0.267-3.219-0.746
		c-0.657-0.287-1.071-0.492-1.358-0.66c-0.042,0.037-0.082,0.075-0.123,0.114c-0.058,0.057-0.12,0.111-0.12,0.203
		c-0.004,0.015-0.011,0.032-0.011,0.048c-0.037,0.29-0.052,0.58-0.072,0.873c0.823,0.593,1.784,1.109,2.939,1.387
		c2.673,0.639,5.548,0.621,6.602,0.596c1.05-0.022,1.65-0.006,1.65-0.006s-1.484,0.498-4.729,0.507
		c-1.468,0.001-3.826-0.312-4.913-0.778c-0.643-0.272-1.222-0.567-1.855-1.021c-0.109,0.051-0.227,0.102-0.295,0.135
		c-0.832,0.385-1.581,0.912-2.303,1.483c-0.306,0.241-0.623,0.474-0.878,0.776c-0.065,0.078-0.115,0.158-0.115,0.266
		c0.523,0.221,1.082,0.233,1.627,0.33c0.525,0.091,1.052,0.173,1.576,0.275c0.432,0.082,0.868,0.158,1.3,0.246
		c0.476,0.096,0.95,0.199,1.426,0.302c0.952,0.203,1.902,0.416,2.855,0.611c0.636,0.129,1.273,0.246,1.915,0.349
		c0.405,0.065,0.813,0.027,1.22-0.028c0.684-0.092,1.292-0.406,1.924-0.654c0.42-0.164,0.837-0.333,1.269-0.463
		c0.282-0.083,0.56-0.19,0.841-0.283c0.619-0.199,1.248-0.365,1.881-0.509c0.395-0.088,0.791-0.159,1.188-0.229
		c0.601-0.109,1.208-0.159,1.813-0.2c0.301-0.02,0.603-0.01,0.904-0.02c0.441-0.018,0.885-0.028,1.324-0.051
		c0.479-0.029,0.959-0.056,1.438-0.101c0.502-0.048,1.002-0.094,1.505-0.161c0.443-0.063,0.887-0.131,1.323-0.232
		c0.023-0.008,0.049-0.003,0.072-0.004c0.004,0.004,0.006,0.009,0.008,0.013c-0.148,0.106-0.33,0.124-0.5,0.173
		c-0.083,0.025-0.17,0.027-0.244,0.072c0.367-0.05,0.725-0.141,1.065-0.299c0.083-0.039,0.133-0.106,0.194-0.164
		c0.023-0.023,0.033-0.064-0.01-0.059C32.237,24.593,32.11,24.529,31.978,24.586z"/>
	<path fill-rule="evenodd" clip-rule="evenodd" fill="none" stroke="#FFFFFF" stroke-width="2" stroke-miterlimit="10" d="
		M34.739,31.476c0,1.802-1.461,3.263-3.264,3.263h-26.1c-1.802,0-3.263-1.461-3.263-3.263V5.375c0-1.802,1.461-3.263,3.263-3.263
		h26.1c1.803,0,3.264,1.461,3.264,3.263V31.476z"/>
</g>
</svg>
