<?xml version="1.0" encoding="utf-8"?>
<!-- Generator: Adobe Illustrator 16.0.0, SVG Export Plug-In . SVG Version: 6.00 Build 0)  -->
<!DOCTYPE svg PUBLIC "-//W3C//DTD SVG 1.1//EN" "http://www.w3.org/Graphics/SVG/1.1/DTD/svg11.dtd">
<svg version="1.1" id="Layer_1" xmlns="http://www.w3.org/2000/svg" xmlns:xlink="http://www.w3.org/1999/xlink" x="0px" y="0px"
	 width="513.071px" height="46.771px" viewBox="-195.453 -0.972 513.071 46.771"
	 enable-background="new -195.453 -0.972 513.071 46.771" xml:space="preserve">
<g id="_x31_Group">
	<path fill="#FFFFFF" d="M-161.587,24.424c-0.02-0.021-0.038-0.379-0.028-0.523c0.031-0.396,0.051-0.794,0.042-1.19
		c-0.004-0.078,0.003-0.172-0.055-0.234c-0.115-0.131-0.232-0.26-0.351-0.391c-0.057,0.033-0.111,0.067-0.166,0.098
		c-0.414,0.242-0.572,0.393-2.151,0.844c-0.945,0.271-2.908,0.437-2.908,0.437s1.289-0.392,1.989-0.605
		c0.695-0.215,1.824-0.563,2.656-1.149c0.147-0.105,0.252-0.187,0.345-0.26c-0.007-0.162-0.013-0.325-0.023-0.488
		c-0.027-0.394-0.052-0.788-0.059-1.184c-0.007-0.263-0.194-1.297-0.239-1.56c-0.075-0.423-0.147-0.845-0.282-1.251
		c-0.101-0.301-0.468-1.348-0.582-1.543c-0.217-0.378-0.406-0.778-0.689-1.114c-0.114-0.134-0.74-1.098-0.944-1.384
		c-0.266-0.319-1.234-1.625-2.937-2.605c-0.884-0.569-1.85-0.899-2.863-1.084c-0.144-0.024-0.289-0.028-0.433-0.031
		c-0.391,0.158-0.736,0.382-1.344,0.552c-1.1,0.31-2.414,1.12-3.017,1.535c-0.588,0.414-2.231,1.832-2.231,1.832
		s1.969-2.358,2.744-2.976c0.836-0.673,1.33-0.94,1.738-1.081c-0.066-0.008-0.13-0.022-0.197-0.024
		c-0.676-0.022-1.329,0.104-1.975,0.306c-0.33,0.103-0.658,0.211-0.98,0.335c-2.396,0.867-4.584,3.336-5.4,4.582
		c-0.246,0.345-0.465,0.71-0.665,1.085c-0.067,0.124-0.836,2.006-0.926,2.347c-0.052,0.201-0.315,1.235-0.396,1.553
		c-0.084,0.34-0.162,0.684-0.217,1.034c-0.021,0.124-0.055,0.253-0.087,0.349c0.687,0.465,1.306,0.807,1.867,1.075
		c0.824,0.392,2.27,0.777,2.27,0.777s-2.117-0.267-3.219-0.745c-0.657-0.287-1.071-0.492-1.358-0.66
		c-0.042,0.037-0.082,0.074-0.123,0.113c-0.058,0.058-0.12,0.111-0.12,0.203c-0.004,0.016-0.063,0.628-0.083,0.921
		c0.823,0.594,1.784,1.109,2.939,1.388c2.673,0.639,5.548,0.621,6.602,0.596c1.05-0.022,1.65-0.006,1.65-0.006
		s-1.484,0.498-4.729,0.507c-1.468,0.001-3.826-0.312-4.913-0.778c-0.643-0.271-1.222-0.566-1.854-1.021
		c-0.109,0.051-0.228,0.102-0.295,0.135c-0.832,0.385-1.581,0.912-2.304,1.483c-0.306,0.24-0.623,0.474-0.878,0.775
		c-0.064,0.078-0.114,0.158-0.114,0.267c0.522,0.221,1.082,0.232,1.627,0.33c0.524,0.091,1.052,0.173,1.575,0.274
		c0.433,0.082,2.25,0.445,2.727,0.548c0.952,0.203,1.902,0.416,2.854,0.611c0.637,0.129,1.273,0.246,1.915,0.349
		c0.405,0.065,0.813,0.027,1.221-0.027c0.684-0.093,1.292-0.406,1.924-0.654c0.42-0.164,1.829-0.653,2.109-0.746
		c0.619-0.199,2.673-0.668,3.069-0.738c0.602-0.108,1.208-0.158,1.813-0.199c0.301-0.021,1.789-0.049,2.228-0.071
		c0.479-0.029,0.959-0.056,1.438-0.102c0.502-0.048,1.002-0.094,1.505-0.16c0.442-0.063,0.887-0.132,1.322-0.232
		C-161.529,24.836-161.49,24.516-161.587,24.424z"/>
	<path fill="none" stroke="#FFFFFF" stroke-width="2" stroke-miterlimit="10" d="M-158.594,31.476c0,1.802-1.461,3.264-3.264,3.264
		h-26.1c-1.803,0-3.264-1.462-3.264-3.264V5.375c0-1.802,1.461-3.264,3.264-3.264h26.1c1.803,0,3.264,1.462,3.264,3.264V31.476z"/>
</g>
<g>
	<path fill="#FFFFFF" d="M-118.286,12.12h-4.426c-0.072-1.031-0.344-1.966-0.816-2.804s-1.1-1.547-1.88-2.127
		c-0.781-0.58-1.69-1.027-2.729-1.343c-1.039-0.315-2.159-0.473-3.362-0.473c-1.647,0-3.133,0.287-4.458,0.859
		c-1.325,0.573-2.453,1.418-3.384,2.535c-0.931,1.117-1.647,2.492-2.148,4.125c-0.501,1.633-0.752,3.509-0.752,5.629
		c0,2.105,0.25,3.979,0.752,5.618c0.501,1.64,1.217,3.019,2.148,4.136c0.931,1.117,2.052,1.97,3.362,2.557s2.775,0.881,4.394,0.881
		c1.26,0,2.413-0.157,3.459-0.473c1.045-0.315,1.951-0.78,2.718-1.396c0.766-0.616,1.382-1.371,1.848-2.267
		c0.465-0.896,0.748-1.923,0.849-3.083h4.426c-0.158,1.733-0.595,3.276-1.311,4.63c-0.716,1.354-1.654,2.496-2.814,3.427
		s-2.518,1.64-4.071,2.127c-1.554,0.486-3.233,0.73-5.038,0.73c-2.32,0-4.419-0.397-6.295-1.192
		c-1.876-0.795-3.474-1.927-4.791-3.395c-1.318-1.468-2.331-3.24-3.04-5.317s-1.063-4.404-1.063-6.982s0.358-4.905,1.074-6.982
		c0.716-2.077,1.733-3.853,3.051-5.328c1.317-1.475,2.915-2.61,4.791-3.405c1.876-0.795,3.967-1.192,6.273-1.192
		c1.719,0,3.348,0.251,4.888,0.752c1.54,0.501,2.904,1.21,4.093,2.127c1.188,0.917,2.155,2.023,2.9,3.319
		C-118.895,9.109-118.444,10.545-118.286,12.12z"/>
	<path fill="#FFFFFF" d="M-105.733,10.659c1.69,0,3.219,0.279,4.587,0.838c1.368,0.559,2.535,1.368,3.502,2.428
		c0.967,1.06,1.708,2.356,2.224,3.889s0.773,3.272,0.773,5.221c0,1.962-0.265,3.71-0.795,5.242c-0.53,1.532-1.278,2.829-2.245,3.889
		s-2.131,1.865-3.491,2.417c-1.361,0.551-2.879,0.827-4.555,0.827c-1.647,0-3.151-0.272-4.512-0.816
		c-1.361-0.544-2.528-1.343-3.502-2.396c-0.974-1.053-1.729-2.349-2.267-3.889s-0.806-3.298-0.806-5.274
		c0-1.948,0.265-3.688,0.795-5.221c0.53-1.532,1.278-2.829,2.245-3.889c0.967-1.06,2.13-1.869,3.491-2.428
		C-108.927,10.939-107.408,10.659-105.733,10.659z M-105.733,32.101c0.988,0,1.894-0.189,2.718-0.569
		c0.823-0.38,1.532-0.945,2.127-1.697c0.594-0.752,1.056-1.697,1.386-2.836c0.329-1.139,0.494-2.46,0.494-3.964
		s-0.165-2.821-0.494-3.953c-0.33-1.131-0.792-2.077-1.386-2.836c-0.595-0.759-1.304-1.328-2.127-1.708
		c-0.824-0.379-1.729-0.569-2.718-0.569c-1.003,0-1.916,0.19-2.739,0.569c-0.824,0.38-1.533,0.949-2.127,1.708
		c-0.595,0.759-1.057,1.705-1.386,2.836c-0.33,1.132-0.494,2.449-0.494,3.953s0.165,2.825,0.494,3.964
		c0.329,1.139,0.791,2.084,1.386,2.836c0.594,0.752,1.303,1.317,2.127,1.697C-107.649,31.911-106.736,32.101-105.733,32.101z"/>
	<path fill="#FFFFFF" d="M-88.238,14.247c1.045-1.217,2.155-2.12,3.33-2.707c1.174-0.587,2.413-0.881,3.717-0.881
		c5.342,0,8.014,2.915,8.014,8.744v15.447h-4.232V19.597c0-0.974-0.083-1.805-0.247-2.492c-0.165-0.688-0.426-1.25-0.784-1.687
		c-0.358-0.437-0.813-0.755-1.364-0.956c-0.552-0.2-1.214-0.301-1.987-0.301c-2.134,0-4.283,1.253-6.445,3.76v16.93h-4.168v-23.59
		h4.168V14.247z"/>
	<path fill="#FFFFFF" d="M-61.096,35.409c-6.417,0-9.804-2.535-10.162-7.605h4.232c0.014,2.864,1.977,4.297,5.887,4.297
		c0.874,0,1.64-0.093,2.299-0.279c0.659-0.187,1.214-0.447,1.665-0.784s0.791-0.73,1.021-1.182c0.229-0.451,0.344-0.949,0.344-1.493
		c0-0.559-0.09-1.014-0.269-1.364c-0.179-0.351-0.516-0.659-1.01-0.924s-1.186-0.526-2.073-0.784
		c-0.888-0.258-2.048-0.573-3.48-0.945c-1.404-0.344-2.61-0.688-3.62-1.031s-1.844-0.763-2.503-1.257
		c-0.659-0.494-1.143-1.103-1.45-1.826c-0.308-0.724-0.462-1.636-0.462-2.739c0-0.974,0.208-1.876,0.623-2.707
		c0.415-0.831,1.002-1.554,1.762-2.17c0.759-0.616,1.683-1.096,2.771-1.439c1.088-0.344,2.299-0.516,3.631-0.516
		c6.216,0,9.375,2.206,9.474,6.617h-4.146c-0.158-2.206-1.826-3.309-5.006-3.309c-0.716,0-1.375,0.068-1.977,0.204
		c-0.602,0.136-1.121,0.337-1.558,0.602c-0.437,0.265-0.781,0.595-1.031,0.988c-0.251,0.394-0.376,0.842-0.376,1.343
		c0,0.458,0.057,0.838,0.172,1.139c0.114,0.301,0.39,0.573,0.827,0.816c0.437,0.243,1.081,0.494,1.934,0.752
		c0.852,0.258,2.023,0.565,3.513,0.924c1.432,0.358,2.678,0.724,3.738,1.096c1.06,0.372,1.937,0.82,2.632,1.343
		c0.693,0.522,1.213,1.164,1.557,1.923s0.516,1.704,0.516,2.836c0,1.06-0.223,2.048-0.666,2.965s-1.078,1.708-1.901,2.374
		c-0.824,0.666-1.819,1.188-2.986,1.568C-58.343,35.219-59.65,35.409-61.096,35.409z"/>
	<path fill="#FFFFFF" d="M-40.014,34.872c-0.459,0.114-0.942,0.196-1.45,0.247c-0.509,0.05-1.035,0.075-1.579,0.075
		c-1.246,0-2.238-0.154-2.976-0.462c-0.738-0.308-1.3-0.763-1.687-1.364s-0.638-1.357-0.752-2.267
		c-0.115-0.909-0.172-1.966-0.172-3.169V14.527h-2.9v-3.266h2.9V5.374h4.211v5.887h3.846v3.266h-3.846v13.6
		c0,0.816,0.054,1.472,0.161,1.966s0.258,0.874,0.451,1.139s0.433,0.44,0.72,0.526c0.286,0.086,0.608,0.129,0.967,0.129
		c0.372,0,0.733-0.015,1.085-0.043c0.351-0.028,0.69-0.071,1.021-0.129V34.872z"/>
	<path fill="#FFFFFF" d="M-26.73,15.085c-0.602-0.2-1.447-0.301-2.535-0.301c-1.089,0-2.084,0.279-2.986,0.838
		s-1.755,1.404-2.557,2.535v16.693h-4.168v-23.59h4.168v3.266c1.775-2.578,3.838-3.867,6.188-3.867c0.286,0,0.583,0.018,0.892,0.054
		c0.308,0.036,0.641,0.083,0.999,0.14V15.085z"/>
	<path fill="#FFFFFF" d="M-11.297,31.865c-2.105,2.363-4.469,3.545-7.09,3.545c-5.343,0-8.014-2.907-8.014-8.723V11.261h4.254
		v15.211c0,0.988,0.082,1.826,0.247,2.514c0.164,0.688,0.426,1.246,0.784,1.676c0.357,0.43,0.813,0.745,1.364,0.945
		c0.551,0.2,1.214,0.301,1.987,0.301c2.349,0,4.504-1.261,6.467-3.781V11.261h4.168v23.59h-4.168V31.865z"/>
	<path fill="#FFFFFF" d="M6.177,35.409c-1.647,0-3.151-0.272-4.512-0.816c-1.361-0.544-2.528-1.343-3.502-2.396
		c-0.975-1.053-1.729-2.349-2.267-3.889s-0.806-3.298-0.806-5.274c0-1.948,0.265-3.688,0.795-5.221
		c0.529-1.532,1.278-2.829,2.245-3.889c0.967-1.06,2.13-1.869,3.491-2.428c1.36-0.559,2.879-0.838,4.555-0.838
		c1.26,0,2.435,0.165,3.523,0.494c1.088,0.33,2.048,0.82,2.879,1.472c0.83,0.652,1.515,1.454,2.052,2.406
		c0.537,0.953,0.892,2.052,1.063,3.298h-4.34c-0.029-0.716-0.183-1.346-0.462-1.891c-0.279-0.544-0.648-0.999-1.106-1.364
		c-0.459-0.365-0.999-0.641-1.622-0.827c-0.623-0.186-1.286-0.279-1.987-0.279c-1.003,0-1.916,0.19-2.739,0.569
		c-0.824,0.38-1.533,0.949-2.127,1.708c-0.595,0.759-1.057,1.705-1.386,2.836c-0.33,1.132-0.494,2.449-0.494,3.953
		s0.164,2.825,0.494,3.964c0.329,1.139,0.791,2.084,1.386,2.836c0.594,0.752,1.303,1.317,2.127,1.697
		c0.823,0.38,1.736,0.569,2.739,0.569c0.658,0,1.296-0.09,1.912-0.269c0.615-0.179,1.16-0.447,1.633-0.806s0.855-0.806,1.149-1.343
		c0.293-0.537,0.454-1.164,0.483-1.88h4.34c-0.172,1.261-0.526,2.363-1.063,3.309s-1.225,1.736-2.063,2.374s-1.802,1.117-2.89,1.439
		C8.59,35.248,7.423,35.409,6.177,35.409z"/>
	<path fill="#FFFFFF" d="M26.12,34.872c-0.459,0.114-0.942,0.196-1.45,0.247c-0.509,0.05-1.035,0.075-1.579,0.075
		c-1.246,0-2.238-0.154-2.976-0.462c-0.738-0.308-1.299-0.763-1.686-1.364s-0.638-1.357-0.752-2.267
		c-0.115-0.909-0.172-1.966-0.172-3.169V14.527h-2.9v-3.266h2.9V5.374h4.21v5.887h3.846v3.266h-3.846v13.6
		c0,0.816,0.054,1.472,0.161,1.966s0.258,0.874,0.451,1.139s0.433,0.44,0.72,0.526c0.286,0.086,0.608,0.129,0.967,0.129
		c0.372,0,0.733-0.015,1.085-0.043c0.351-0.028,0.69-0.071,1.021-0.129V34.872z"/>
	<path fill="#FFFFFF" d="M31.326,6.792h-4.168V2.238h4.168V6.792z M31.326,34.851h-4.168v-23.59h4.168V34.851z"/>
	<path fill="#FFFFFF" d="M44.632,10.659c1.689,0,3.219,0.279,4.587,0.838c1.367,0.559,2.535,1.368,3.502,2.428
		c0.967,1.06,1.708,2.356,2.224,3.889s0.773,3.272,0.773,5.221c0,1.962-0.266,3.71-0.795,5.242c-0.53,1.532-1.278,2.829-2.245,3.889
		s-2.131,1.865-3.491,2.417c-1.361,0.551-2.879,0.827-4.555,0.827c-1.647,0-3.151-0.272-4.512-0.816
		c-1.361-0.544-2.528-1.343-3.502-2.396c-0.975-1.053-1.729-2.349-2.267-3.889s-0.806-3.298-0.806-5.274
		c0-1.948,0.265-3.688,0.795-5.221c0.529-1.532,1.278-2.829,2.245-3.889c0.967-1.06,2.13-1.869,3.491-2.428
		C41.438,10.939,42.956,10.659,44.632,10.659z M44.632,32.101c0.988,0,1.894-0.189,2.718-0.569c0.823-0.38,1.532-0.945,2.127-1.697
		c0.594-0.752,1.056-1.697,1.386-2.836c0.329-1.139,0.494-2.46,0.494-3.964s-0.165-2.821-0.494-3.953
		c-0.33-1.131-0.792-2.077-1.386-2.836c-0.595-0.759-1.304-1.328-2.127-1.708c-0.824-0.379-1.729-0.569-2.718-0.569
		c-1.003,0-1.916,0.19-2.739,0.569c-0.824,0.38-1.533,0.949-2.127,1.708c-0.595,0.759-1.057,1.705-1.386,2.836
		c-0.33,1.132-0.494,2.449-0.494,3.953s0.164,2.825,0.494,3.964c0.329,1.139,0.791,2.084,1.386,2.836
		c0.594,0.752,1.303,1.317,2.127,1.697C42.716,31.911,43.629,32.101,44.632,32.101z"/>
	<path fill="#FFFFFF" d="M62.127,14.247c1.045-1.217,2.155-2.12,3.33-2.707c1.174-0.587,2.413-0.881,3.717-0.881
		c5.342,0,8.014,2.915,8.014,8.744v15.447h-4.232V19.597c0-0.974-0.083-1.805-0.247-2.492c-0.165-0.688-0.427-1.25-0.784-1.687
		c-0.358-0.437-0.813-0.755-1.364-0.956c-0.552-0.2-1.214-0.301-1.987-0.301c-2.135,0-4.283,1.253-6.445,3.76v16.93h-4.168v-23.59
		h4.168V14.247z"/>
	<path fill="#FFFFFF" d="M112.084,34.851h-4.146V7.136l-9.303,27.715h-3.889L85.465,7.136v27.715h-4.104V2.238h6.531l8.787,27.178
		l8.895-27.178h6.51V34.851z"/>
	<path fill="#FFFFFF" d="M131.363,32.445c-2.221,1.977-4.992,2.965-8.314,2.965c-1.132,0-2.185-0.165-3.158-0.494
		c-0.975-0.329-1.823-0.791-2.546-1.386c-0.724-0.595-1.289-1.311-1.697-2.148s-0.612-1.766-0.612-2.782
		c0-5.515,4.748-8.271,14.244-8.271h2.084c0-1.017-0.032-1.923-0.097-2.718s-0.276-1.461-0.634-1.998
		c-0.358-0.537-0.921-0.945-1.687-1.225c-0.767-0.279-1.858-0.419-3.276-0.419c-3.725,0-5.65,1.347-5.779,4.039h-4.211
		c0.271-4.898,3.688-7.348,10.248-7.348c1.475,0,2.807,0.133,3.996,0.397c1.188,0.265,2.198,0.73,3.029,1.396
		c0.83,0.666,1.468,1.579,1.912,2.739c0.443,1.16,0.666,2.628,0.666,4.404v15.254h-4.168V32.445z M131.363,28.642v-5.221h-2.922
		c-6.088,0-9.131,1.654-9.131,4.963c0,0.602,0.118,1.132,0.354,1.59s0.572,0.845,1.01,1.16c0.437,0.315,0.959,0.555,1.568,0.72
		c0.608,0.165,1.285,0.247,2.03,0.247c0.688,0,1.375-0.079,2.063-0.236s1.339-0.383,1.955-0.677
		c0.615-0.294,1.188-0.655,1.719-1.085C130.538,29.673,130.99,29.186,131.363,28.642z"/>
	<path fill="#FFFFFF" d="M143.444,14.247c1.045-1.217,2.155-2.12,3.33-2.707c1.174-0.587,2.413-0.881,3.717-0.881
		c5.342,0,8.014,2.915,8.014,8.744v15.447h-4.232V19.597c0-0.974-0.083-1.805-0.247-2.492c-0.165-0.688-0.427-1.25-0.784-1.687
		c-0.358-0.437-0.813-0.755-1.364-0.956c-0.552-0.2-1.214-0.301-1.987-0.301c-2.135,0-4.283,1.253-6.445,3.76v16.93h-4.168v-23.59
		h4.168V14.247z"/>
	<path fill="#FFFFFF" d="M177.138,32.445c-2.221,1.977-4.992,2.965-8.314,2.965c-1.132,0-2.185-0.165-3.158-0.494
		c-0.975-0.329-1.823-0.791-2.546-1.386c-0.724-0.595-1.289-1.311-1.697-2.148s-0.612-1.766-0.612-2.782
		c0-5.515,4.748-8.271,14.244-8.271h2.084c0-1.017-0.032-1.923-0.097-2.718s-0.276-1.461-0.634-1.998
		c-0.358-0.537-0.921-0.945-1.687-1.225c-0.767-0.279-1.858-0.419-3.276-0.419c-3.725,0-5.65,1.347-5.779,4.039h-4.211
		c0.271-4.898,3.688-7.348,10.248-7.348c1.475,0,2.807,0.133,3.996,0.397c1.188,0.265,2.198,0.73,3.029,1.396
		c0.83,0.666,1.468,1.579,1.912,2.739c0.443,1.16,0.666,2.628,0.666,4.404v15.254h-4.168V32.445z M177.138,28.642v-5.221h-2.922
		c-6.088,0-9.131,1.654-9.131,4.963c0,0.602,0.118,1.132,0.354,1.59s0.572,0.845,1.01,1.16c0.437,0.315,0.959,0.555,1.568,0.72
		c0.608,0.165,1.285,0.247,2.03,0.247c0.688,0,1.375-0.079,2.063-0.236s1.339-0.383,1.955-0.677
		c0.615-0.294,1.188-0.655,1.719-1.085C176.314,29.673,176.765,29.186,177.138,28.642z"/>
	<path fill="#FFFFFF" d="M204.194,33.025c0,7.605-3.424,11.408-10.27,11.408c-1.49,0-2.825-0.165-4.007-0.494
		c-1.182-0.33-2.191-0.803-3.029-1.418c-0.838-0.616-1.479-1.368-1.923-2.256c-0.444-0.889-0.666-1.891-0.666-3.008h4.361
		c0,2.592,1.711,3.889,5.135,3.889c1.002,0,1.891-0.122,2.664-0.365c0.773-0.244,1.425-0.666,1.955-1.268
		c0.529-0.602,0.931-1.415,1.203-2.438c0.271-1.024,0.408-2.316,0.408-3.878v-1.139c-1.891,2.234-4.14,3.352-6.746,3.352
		c-1.59,0-2.99-0.29-4.2-0.87c-1.211-0.58-2.228-1.403-3.051-2.471c-0.824-1.067-1.447-2.349-1.869-3.846
		c-0.423-1.497-0.634-3.162-0.634-4.995c0-1.948,0.254-3.699,0.763-5.253c0.508-1.554,1.21-2.872,2.105-3.953
		c0.895-1.081,1.951-1.912,3.169-2.492c1.217-0.58,2.527-0.87,3.932-0.87c1.303,0,2.492,0.201,3.566,0.602
		c1.074,0.401,2.063,1.003,2.965,1.805v-1.805h4.168V33.025z M200.026,28.04V16.847c-1.891-1.919-3.975-2.879-6.252-2.879
		c-0.902,0-1.716,0.193-2.438,0.58c-0.724,0.387-1.343,0.963-1.858,1.729c-0.516,0.767-0.913,1.729-1.192,2.89
		s-0.419,2.514-0.419,4.061c0,2.937,0.505,5.149,1.515,6.639s2.417,2.234,4.222,2.234c1.174,0,2.291-0.329,3.352-0.988
		C198.013,30.453,199.037,29.43,200.026,28.04z"/>
	<path fill="#FFFFFF" d="M217.95,35.409c-1.719,0-3.284-0.276-4.694-0.827c-1.411-0.552-2.625-1.357-3.642-2.417
		c-1.018-1.06-1.805-2.356-2.363-3.889s-0.838-3.28-0.838-5.242c0-1.919,0.269-3.642,0.806-5.167s1.296-2.821,2.277-3.889
		c0.98-1.067,2.151-1.887,3.513-2.46c1.36-0.573,2.857-0.859,4.49-0.859c1.689,0,3.219,0.279,4.587,0.838
		c1.367,0.559,2.535,1.368,3.502,2.428c0.967,1.06,1.708,2.356,2.224,3.889s0.773,3.272,0.773,5.221v1.01h-17.789
		c0.1,1.36,0.347,2.546,0.741,3.556c0.394,1.01,0.902,1.848,1.525,2.514s1.35,1.164,2.181,1.493c0.83,0.329,1.732,0.494,2.707,0.494
		c0.701,0,1.396-0.093,2.084-0.279s1.303-0.462,1.848-0.827c0.544-0.365,0.991-0.816,1.343-1.354
		c0.351-0.537,0.533-1.149,0.548-1.837h4.404c-0.187,1.218-0.573,2.299-1.16,3.244c-0.588,0.945-1.329,1.74-2.224,2.385
		c-0.896,0.645-1.927,1.135-3.094,1.472C220.531,35.24,219.282,35.409,217.95,35.409z M224.138,20.736
		c-0.172-1.117-0.451-2.098-0.838-2.943c-0.387-0.845-0.867-1.55-1.439-2.116c-0.573-0.565-1.229-0.992-1.966-1.278
		c-0.738-0.286-1.536-0.43-2.396-0.43c-0.846,0-1.637,0.14-2.374,0.419c-0.738,0.279-1.394,0.702-1.966,1.268
		c-0.573,0.566-1.057,1.271-1.45,2.116c-0.395,0.845-0.677,1.833-0.849,2.965H224.138z"/>
	<path fill="#FFFFFF" d="M243.073,15.085c-0.602-0.2-1.447-0.301-2.535-0.301c-1.089,0-2.084,0.279-2.986,0.838
		s-1.755,1.404-2.557,2.535v16.693h-4.168v-23.59h4.168v3.266c1.775-2.578,3.838-3.867,6.188-3.867c0.286,0,0.583,0.018,0.892,0.054
		c0.308,0.036,0.641,0.083,0.999,0.14V15.085z"/>
	<path fill="#FFFFFF" d="M249.008,34.851h-4.555v-4.555h4.555V34.851z"/>
	<path fill="#FFFFFF" d="M279.888,34.851h-4.426L258.339,9.134v25.717h-4.104V2.238h4.469l17.059,25.76V2.238h4.125V34.851z"/>
	<path fill="#FFFFFF" d="M294.182,35.409c-1.719,0-3.284-0.276-4.694-0.827c-1.411-0.552-2.625-1.357-3.642-2.417
		c-1.018-1.06-1.805-2.356-2.363-3.889s-0.838-3.28-0.838-5.242c0-1.919,0.269-3.642,0.806-5.167s1.296-2.821,2.277-3.889
		c0.98-1.067,2.151-1.887,3.513-2.46c1.36-0.573,2.857-0.859,4.49-0.859c1.689,0,3.219,0.279,4.587,0.838
		c1.367,0.559,2.535,1.368,3.502,2.428c0.967,1.06,1.708,2.356,2.224,3.889s0.773,3.272,0.773,5.221v1.01h-17.789
		c0.1,1.36,0.347,2.546,0.741,3.556c0.394,1.01,0.902,1.848,1.525,2.514s1.35,1.164,2.181,1.493c0.83,0.329,1.732,0.494,2.707,0.494
		c0.701,0,1.396-0.093,2.084-0.279s1.303-0.462,1.848-0.827c0.544-0.365,0.991-0.816,1.343-1.354
		c0.351-0.537,0.533-1.149,0.548-1.837h4.404c-0.187,1.218-0.573,2.299-1.16,3.244c-0.588,0.945-1.329,1.74-2.224,2.385
		c-0.896,0.645-1.927,1.135-3.094,1.472C296.763,35.24,295.514,35.409,294.182,35.409z M300.369,20.736
		c-0.172-1.117-0.451-2.098-0.838-2.943c-0.387-0.845-0.867-1.55-1.439-2.116c-0.573-0.565-1.229-0.992-1.966-1.278
		c-0.738-0.286-1.536-0.43-2.396-0.43c-0.846,0-1.637,0.14-2.374,0.419c-0.738,0.279-1.394,0.702-1.966,1.268
		c-0.573,0.566-1.057,1.271-1.45,2.116c-0.395,0.845-0.677,1.833-0.849,2.965H300.369z"/>
	<path fill="#FFFFFF" d="M316.232,34.872c-0.459,0.114-0.942,0.196-1.45,0.247c-0.509,0.05-1.035,0.075-1.579,0.075
		c-1.246,0-2.238-0.154-2.976-0.462c-0.738-0.308-1.3-0.763-1.687-1.364s-0.638-1.357-0.752-2.267
		c-0.115-0.909-0.172-1.966-0.172-3.169V14.527h-2.9v-3.266h2.9V5.374h4.211v5.887h3.846v3.266h-3.846v13.6
		c0,0.816,0.054,1.472,0.161,1.966s0.258,0.874,0.451,1.139s0.433,0.44,0.72,0.526c0.286,0.086,0.608,0.129,0.967,0.129
		c0.372,0,0.733-0.015,1.085-0.043c0.351-0.028,0.69-0.071,1.021-0.129V34.872z"/>
</g>
</svg>
