<?xml version="1.0" encoding="utf-8"?>
<!-- Generator: Adobe Illustrator 16.0.0, SVG Export Plug-In . SVG Version: 6.00 Build 0)  -->
<!DOCTYPE svg PUBLIC "-//W3C//DTD SVG 1.1//EN" "http://www.w3.org/Graphics/SVG/1.1/DTD/svg11.dtd">
<svg version="1.1" id="Layer_1" xmlns="http://www.w3.org/2000/svg" xmlns:xlink="http://www.w3.org/1999/xlink" x="0px" y="0px"
	 width="36.85px" height="36.85px" viewBox="0 0 36.85 36.85" enable-background="new 0 0 36.85 36.85" xml:space="preserve">
<g id="_x31_Group">
	<path fill="#FFFFFF" d="M31.746,24.424c-0.02-0.021-0.038-0.379-0.028-0.523c0.031-0.396,0.051-0.794,0.042-1.19
		c-0.004-0.078,0.003-0.172-0.055-0.234c-0.115-0.131-0.232-0.26-0.351-0.391c-0.057,0.033-0.111,0.067-0.166,0.098
		c-0.414,0.242-0.572,0.393-2.151,0.844c-0.945,0.271-2.908,0.437-2.908,0.437s1.289-0.392,1.989-0.605
		c0.695-0.215,1.824-0.563,2.656-1.149c0.147-0.105,0.252-0.187,0.345-0.26c-0.007-0.162-0.013-0.325-0.023-0.488
		c-0.027-0.394-0.052-0.788-0.059-1.184c-0.007-0.263-0.194-1.297-0.239-1.56c-0.075-0.423-0.147-0.845-0.282-1.251
		c-0.101-0.301-0.468-1.348-0.582-1.543c-0.217-0.378-0.406-0.778-0.689-1.114c-0.114-0.134-0.74-1.098-0.944-1.384
		c-0.266-0.319-1.234-1.625-2.937-2.605C24.48,9.75,23.514,9.42,22.5,9.236c-0.144-0.024-0.289-0.028-0.433-0.031
		c-0.391,0.158-0.736,0.382-1.344,0.552c-1.1,0.31-2.414,1.12-3.017,1.535c-0.588,0.414-2.231,1.832-2.231,1.832
		s1.969-2.358,2.744-2.976c0.836-0.673,1.33-0.94,1.738-1.081c-0.066-0.008-0.13-0.022-0.197-0.024
		c-0.676-0.022-1.329,0.104-1.975,0.306c-0.33,0.103-0.658,0.211-0.98,0.335c-2.396,0.867-4.584,3.336-5.4,4.582
		c-0.246,0.345-0.465,0.71-0.665,1.085c-0.067,0.124-0.836,2.006-0.926,2.347c-0.052,0.201-0.315,1.235-0.396,1.553
		c-0.084,0.34-0.162,0.684-0.217,1.034c-0.021,0.124-0.055,0.253-0.087,0.349c0.687,0.465,1.306,0.807,1.867,1.075
		c0.824,0.392,2.27,0.777,2.27,0.777s-2.117-0.267-3.219-0.745c-0.657-0.287-1.071-0.492-1.358-0.66
		c-0.042,0.037-0.082,0.074-0.123,0.113c-0.058,0.058-0.12,0.111-0.12,0.203c-0.004,0.016-0.063,0.628-0.083,0.921
		c0.823,0.594,1.784,1.109,2.939,1.388c2.673,0.639,5.548,0.621,6.602,0.596c1.05-0.022,1.65-0.006,1.65-0.006
		s-1.484,0.498-4.729,0.507c-1.468,0.001-3.826-0.312-4.913-0.778c-0.643-0.271-1.222-0.566-1.854-1.021
		c-0.109,0.051-0.228,0.102-0.295,0.135c-0.832,0.385-1.581,0.912-2.304,1.483c-0.306,0.24-0.623,0.474-0.878,0.775
		c-0.064,0.078-0.114,0.158-0.114,0.267c0.522,0.221,1.082,0.232,1.627,0.33c0.524,0.091,1.052,0.173,1.575,0.274
		c0.433,0.082,2.25,0.445,2.727,0.548c0.952,0.203,1.902,0.416,2.854,0.611c0.637,0.129,1.273,0.246,1.915,0.349
		c0.405,0.065,0.813,0.027,1.221-0.027c0.684-0.093,1.292-0.406,1.924-0.654c0.42-0.164,1.829-0.653,2.109-0.746
		c0.619-0.199,2.673-0.668,3.069-0.738c0.602-0.108,1.208-0.158,1.813-0.199c0.301-0.021,1.789-0.049,2.228-0.071
		c0.479-0.029,0.959-0.056,1.438-0.102c0.502-0.048,1.002-0.094,1.505-0.16c0.442-0.063,0.887-0.132,1.322-0.232
		C31.804,24.836,31.843,24.516,31.746,24.424z"/>
	<path fill="none" stroke="#FFFFFF" stroke-width="2" stroke-miterlimit="10" d="M34.739,31.476c0,1.802-1.461,3.264-3.264,3.264
		h-26.1c-1.803,0-3.264-1.462-3.264-3.264V5.375c0-1.802,1.461-3.264,3.264-3.264h26.1c1.803,0,3.264,1.462,3.264,3.264V31.476z"/>
</g>
</svg>
