<?xml version="1.0"?>
<svg width="246" height="244" xmlns="http://www.w3.org/2000/svg">
 <!-- Created with Method Draw - http://github.com/duopixel/Method-Draw/ -->
 <g>
  <title>background</title>
  <rect fill="#fff" id="canvas_background" height="246" width="248" y="-1" x="-1"/>
  <g display="none" overflow="visible" y="0" x="0" height="100%" width="100%" id="canvasGrid">
   <rect fill="url(#gridpattern)" stroke-width="0" y="0" x="0" height="100%" width="100%"/>
  </g>
 </g>
 <g>
  <title>Layer 1</title>
  <path id="svg_1" d="m216.37352,191.584198l-50.960571,-50.960892c6.866379,-11.321228 10.893112,-24.566093 10.898499,-38.768456c-0.005386,-41.428711 -33.555145,-74.984085 -74.962334,-74.997856c-41.414635,0.013771 -74.975594,33.569145 -74.975594,74.992065c0,41.399078 33.560959,74.954086 74.975594,74.954086c14.210831,0 27.455879,-4.026688 38.77729,-10.890381l50.973907,50.965958l25.273209,-25.294525zm-161.401497,-89.735138c0.043491,-25.616287 20.76075,-46.328358 46.371696,-46.385571c25.595139,0.057213 46.325851,20.769283 46.369339,46.385571c-0.048996,25.600433 -20.7742,46.312088 -46.369339,46.369385c-25.610947,-0.057297 -46.328205,-20.768951 -46.371696,-46.369385z" stroke-width="1.5" stroke="#666666" fill="#666666"/>
 </g>
</svg>